<svg width="443" height="607" viewBox="0 0 443 607" fill="none" xmlns="http://www.w3.org/2000/svg">
<path d="M256.752 64.282C256.748 50.7126 260.247 39.8633 267.254 31.7767C275.327 22.4553 288.136 16.8353 305.314 15.0767C319.039 13.6754 335.578 14.714 354.468 18.1727C386.627 24.0566 414.831 35.0673 415.114 35.178C414.728 35.3273 386.547 24.3273 354.415 18.442C335.552 14.99 319.039 13.9473 305.338 15.3527C288.236 17.102 275.491 22.69 267.464 31.958C260.499 39.998 257.02 50.7927 257.02 64.2953C257.02 90.8153 270.439 127.77 297.208 174.782C413.414 378.866 412.732 379.69 377.134 422.919C370.84 430.567 363.706 439.234 355.838 450.617C344.858 466.478 341.386 483.699 345.507 501.797C352.231 531.321 378.207 558.271 398.816 575.679C421.151 594.542 442.164 606.581 442.368 606.705C442.022 606.822 420.987 594.773 398.635 575.89C385.504 564.797 374.494 553.549 365.908 542.462C355.17 528.593 348.216 514.93 345.24 501.865C344.112 496.918 343.547 492.042 343.547 487.239C343.547 474.379 347.578 462.053 355.607 450.454C363.479 439.069 370.623 430.397 376.919 422.747C412.402 379.658 413.079 378.839 296.967 174.914C270.183 127.874 256.752 90.8687 256.752 64.282Z" fill="#FAFAFA"/>
<path d="M247.963 63.3285C247.963 49.8058 251.442 39.0098 258.407 30.9805C266.317 21.8699 278.786 16.3685 295.477 14.6285C308.811 13.2379 324.857 14.2338 343.167 17.5858C374.331 23.2925 401.627 34.0032 401.895 34.1112C401.525 34.2632 374.253 23.5552 343.11 17.8552C324.829 14.5085 308.811 13.5152 295.499 14.9005C278.886 16.6365 266.481 22.1045 258.617 31.1578C251.694 39.1379 248.237 49.8818 248.234 63.3392C248.234 90.0498 261.851 127.446 289.007 175.142C348.29 279.247 374.523 327.598 383.515 357.494C387.935 372.191 388.319 383.046 384.773 392.694C381.386 401.886 374.545 409.88 365.871 420.011C358.981 428.052 351.178 437.172 342.622 449.546C331.643 465.408 328.171 482.631 332.291 500.728C339.015 530.252 364.991 557.202 385.598 574.608C407.931 593.478 428.943 605.512 429.153 605.631C428.811 605.751 407.778 593.702 385.423 574.822C372.293 563.726 361.278 552.478 352.694 541.391C341.957 527.524 334.999 513.867 332.022 500.792C330.899 495.855 330.339 490.971 330.331 486.168C330.331 473.31 334.362 460.991 342.391 449.383C350.961 437.003 358.767 427.878 365.661 419.831C382.989 399.591 392.534 388.446 383.253 357.572C374.263 327.698 348.041 279.371 288.771 175.276C261.598 127.554 247.97 90.1031 247.963 63.3285Z" fill="#FAFAFA"/>
<path d="M239.16 62.3477C239.16 48.8716 242.615 38.1317 249.541 30.165C257.279 21.269 269.417 15.8863 285.615 14.1677C298.557 12.7943 314.115 13.745 331.851 16.9957C362.031 22.5236 388.42 32.941 388.687 33.045C388.317 33.1943 361.949 22.7903 331.797 17.2623C314.083 14.025 298.557 13.0717 285.64 14.4464C269.517 16.1556 257.441 21.5037 249.751 30.3503C242.871 38.2623 239.435 48.949 239.431 62.3543C239.431 89.2543 253.255 127.098 280.816 175.506C336.269 272.893 364.211 324.732 373.037 355.966C381.761 386.825 372.102 397.65 354.563 417.296C347.089 425.677 338.608 435.17 329.411 448.477C318.429 464.34 314.953 481.565 319.08 499.658C325.804 529.184 351.781 556.132 372.383 573.54C394.717 592.405 415.732 604.446 415.944 604.565C415.596 604.682 394.56 592.636 372.208 573.752C359.079 562.657 348.068 551.412 339.483 540.322C328.745 526.457 321.791 512.797 318.811 499.726C317.683 494.782 317.123 489.904 317.123 485.101C317.123 472.245 321.153 459.921 329.18 448.32C338.395 435 346.875 425.496 354.36 417.113C371.831 397.537 381.452 386.753 372.775 356.041C363.952 324.841 336.015 273.005 280.576 175.642C252.995 127.202 239.16 89.3023 239.16 62.3477Z" fill="#FAFAFA"/>
<path d="M230.342 61.3303C230.342 47.905 233.775 37.229 240.648 29.3436C248.219 20.6597 260.019 15.3943 275.735 13.6957C288.29 12.349 303.354 13.2596 320.511 16.3983C349.723 21.7516 375.216 31.8703 375.471 31.977C375.115 32.1303 349.643 22.0197 320.46 16.6716C303.324 13.5316 288.29 12.625 275.76 13.973C260.122 15.6624 248.379 20.8917 240.862 29.5197C234.028 37.3636 230.612 47.9904 230.612 61.341C230.611 88.425 244.646 126.736 272.623 175.865C324.435 266.87 354.126 322.294 362.658 354.529C366.479 369.02 366.432 379.705 362.491 389.173C358.79 398.069 351.92 405.438 343.222 414.766C335.548 422.992 325.998 433.232 316.192 447.406C305.218 463.276 301.742 480.497 305.864 498.594C312.595 528.116 338.568 555.064 359.175 572.469C381.508 591.344 402.519 603.376 402.726 603.496C402.384 603.617 381.348 591.572 358.998 572.685C345.866 561.592 334.852 550.342 326.27 539.252C315.531 525.386 308.575 511.729 305.595 498.656C304.474 493.717 303.911 488.841 303.911 484.038C303.911 471.177 307.942 458.854 315.964 447.25C325.787 433.058 335.336 422.812 343.016 414.577C360.135 396.226 370.463 385.148 362.387 354.601C353.87 322.39 324.186 266.985 272.378 176.005C244.387 126.842 230.342 88.4783 230.342 61.3303Z" fill="#FAFAFA"/>
<path d="M221.504 60.2853C221.504 46.9226 224.912 36.3173 231.736 28.4946C239.128 20.0253 250.602 14.8906 265.827 13.2227C277.991 11.8893 292.574 12.7573 309.163 15.7986C337.406 20.9813 362.012 30.808 362.259 30.9066C361.907 31.064 337.327 21.244 309.112 16.0693C292.548 13.0333 277.995 12.1693 265.854 13.5026C250.698 15.1613 239.291 20.2666 231.943 28.6799C225.159 36.4466 221.778 47.0079 221.778 60.296C221.771 87.5653 236.023 126.343 264.427 176.229C293.612 227.487 312.648 262.393 326.15 289.403C340.268 317.66 348.602 337.924 352.347 353.177C359.862 383.712 349.316 394.513 331.851 412.4C323.607 420.84 313.35 431.349 302.979 446.339C292.003 462.203 288.526 479.425 292.655 497.528C299.379 527.045 325.352 553.992 345.96 571.405C368.295 590.275 389.306 602.307 389.516 602.427C389.168 602.545 368.136 590.505 345.783 571.615C332.655 560.523 321.639 549.28 313.058 538.185C302.315 524.317 295.363 510.66 292.384 497.589C291.258 492.645 290.695 487.771 290.695 482.968C290.695 470.107 294.726 457.784 302.755 446.183C313.136 431.169 323.403 420.655 331.652 412.208C349.054 394.388 359.552 383.633 352.078 353.245C344.884 323.989 321.887 277.704 264.184 176.368C235.763 126.459 221.506 87.6187 221.504 60.2853Z" fill="#FAFAFA"/>
<path d="M212.646 59.2063C212.646 45.9116 216.023 35.3743 222.796 27.6356C230.016 19.3903 241.15 14.3743 255.891 12.7343C267.678 11.4222 281.773 12.2529 297.806 15.1929C325.079 20.2076 348.807 29.7422 349.046 29.8383C348.707 30.0023 325.003 20.4689 297.75 15.4689C281.747 12.5303 267.678 11.7089 255.923 13.0116C241.251 14.6436 230.178 19.6276 223.004 27.8209C216.274 35.5089 212.916 45.9969 212.916 59.2196C212.916 86.6676 227.382 125.936 256.234 176.598C284.34 225.973 303.625 261.552 316.91 288.565C330.625 316.466 338.643 336.6 342.12 351.912C345.371 366.198 344.851 376.718 340.44 386.028C336.341 394.669 329.336 401.513 320.46 410.186C311.632 418.797 300.664 429.518 289.763 445.269C278.791 461.141 275.316 478.356 279.438 496.458C286.166 525.977 312.143 552.929 332.744 570.333C355.083 589.202 376.089 601.237 376.299 601.36C375.956 601.477 354.92 589.434 332.57 570.546C319.436 559.454 308.43 548.212 299.842 537.121C289.106 523.246 282.147 509.592 279.168 496.518C278.047 491.58 277.481 486.702 277.481 481.901C277.481 469.038 281.514 456.716 289.542 445.116C300.452 429.344 311.439 418.608 320.264 409.992C338.009 392.654 348.723 382.189 341.856 351.97C335.113 322.314 311.838 274.818 255.987 176.733C227.128 126.042 212.646 86.7249 212.646 59.2063Z" fill="#FAFAFA"/>
<path d="M203.763 58.0951C203.763 44.8751 207.118 34.4164 213.827 26.7604C220.869 18.7338 231.673 13.8498 245.938 12.2378C257.334 10.9564 270.954 11.7405 286.422 14.5925C312.742 19.4285 335.609 28.6778 335.83 28.7671C335.501 28.9311 312.666 19.6951 286.366 14.8564C270.93 12.0178 257.334 11.2285 245.967 12.5165C231.777 14.1178 221.029 18.9724 214.038 26.9445C193.346 50.5311 204.787 101.006 248.034 176.963C302.194 272.082 325.727 320.798 331.961 350.727C338.261 380.922 326.641 391.736 309.041 408.107C299.642 416.852 287.942 427.743 276.554 444.202C265.582 460.072 262.101 477.291 266.23 495.39C272.954 524.912 298.931 551.86 319.533 569.271C341.87 588.136 362.879 600.172 363.089 600.29C362.737 600.415 341.711 588.366 319.353 569.475C306.229 558.388 295.214 547.14 286.629 536.047C275.886 522.18 268.937 508.52 265.959 495.45C264.829 490.508 264.27 485.634 264.27 480.831C264.27 467.97 268.298 455.644 276.323 444.046C287.726 427.56 299.443 416.658 308.854 407.908C326.385 391.6 337.958 380.826 331.697 350.775C325.466 320.887 301.938 272.195 247.795 177.099C218.477 125.606 203.77 85.7938 203.763 58.0951Z" fill="#FAFAFA"/>
<path d="M194.866 56.9521C194.866 43.8081 198.182 33.4361 204.835 25.8708C211.7 18.0681 222.17 13.3121 235.952 11.7388C246.966 10.4734 260.111 11.2294 275.022 13.9734C300.403 18.6548 322.4 27.6121 322.62 27.7028C322.296 27.8694 300.315 18.9174 274.968 14.2468C260.083 11.5041 246.966 10.7534 235.983 12.0068C222.266 13.5788 211.858 18.3001 205.047 26.0574C198.438 33.5707 195.128 43.8948 195.128 56.9668C195.128 84.7761 210.064 125.036 239.838 177.321C292.422 269.672 316.186 319.591 321.876 349.609C324.542 363.695 323.524 374.06 318.576 383.217C314.034 391.619 306.424 398.355 297.618 406.153C287.099 415.461 275.182 426.015 263.338 443.131C252.366 459.001 248.891 476.224 253.014 494.32C259.74 523.841 285.715 550.789 306.318 568.193C328.654 587.072 349.67 599.101 349.875 599.221C349.527 599.345 328.495 587.296 306.143 568.409C293.011 557.321 282.004 546.072 273.414 534.984C262.679 521.113 255.724 507.452 252.743 494.38C251.615 489.44 251.056 484.565 251.056 479.764C251.056 466.901 255.087 454.58 263.116 442.979C274.974 425.831 287.43 414.807 297.431 405.947C315.396 390.043 327.26 379.543 321.599 349.663C315.923 319.669 292.164 269.783 239.602 177.461C209.811 125.149 194.866 84.8281 194.866 56.9521Z" fill="#FAFAFA"/>
<path d="M185.941 55.7726C185.941 42.7166 189.224 32.4379 195.813 24.9673C202.498 17.3873 212.63 12.7593 225.942 11.218C236.573 9.98724 249.25 10.7059 263.605 13.3566C288.05 17.874 309.193 26.5446 309.409 26.6366C309.092 26.8059 287.968 18.1367 263.552 13.6299C249.22 10.9833 236.573 10.2632 225.972 11.4926C212.732 13.0286 202.654 17.6246 196.022 25.1486C186.557 35.8859 183.953 52.746 188.276 75.2726C193.324 101.559 207.913 136.019 231.642 177.689C283.433 268.646 306.67 318.155 311.846 348.573C314.19 362.37 312.878 372.966 307.716 381.917C302.928 390.211 295.172 396.745 286.182 404.309C275.033 413.694 262.393 424.33 250.129 442.062C239.152 457.933 235.678 475.157 239.798 493.254C246.522 522.773 272.502 549.721 293.108 567.13C315.436 586.001 336.454 598.038 336.66 598.15C336.312 598.277 315.282 586.227 292.932 567.345C279.8 556.249 268.785 545.002 260.201 533.914C249.461 520.047 242.506 506.382 239.529 493.313C238.408 488.37 237.841 483.495 237.841 478.691C237.841 465.83 241.873 453.514 249.898 441.906C262.186 424.143 274.837 413.491 286.001 404.098C303.781 389.131 316.625 378.318 311.572 348.615C306.406 318.238 283.182 268.757 231.402 177.825C201.129 124.661 185.945 83.8233 185.941 55.7726Z" fill="#FAFAFA"/>
<path d="M176.992 54.5549C176.992 41.6029 180.243 31.4189 186.76 24.0482C193.262 16.6949 203.066 12.2029 215.898 10.6936C226.156 9.48822 238.356 10.1749 252.175 12.7349C275.683 17.0909 295.992 25.4829 296.192 25.5682C295.886 25.7363 275.607 17.3602 252.118 13.0096C238.331 10.4523 226.156 9.76825 215.93 10.9722C203.162 12.4682 193.42 16.9269 186.967 24.2269C180.532 31.5056 177.306 41.6842 177.306 54.6002C177.306 60.6309 178.006 67.2509 179.412 74.4656C184.588 100.976 199.404 135.827 223.446 178.055C249.307 223.467 267.951 258.743 280.45 285.895C292.578 312.248 299.588 332.427 301.867 347.598C306.336 377.286 293.082 387.887 274.736 402.564C262.947 411.999 249.576 422.687 236.912 441C225.934 456.867 222.462 474.09 226.587 492.187C233.311 521.711 259.286 548.659 279.894 566.063C302.228 584.932 323.242 596.971 323.45 597.088C323.103 597.206 302.071 585.16 279.719 566.275C266.586 555.184 255.578 543.938 246.984 532.846C236.247 518.979 229.298 505.32 226.32 492.247C225.19 487.303 224.631 482.427 224.631 477.628C224.631 464.762 228.662 452.448 236.687 440.843C249.374 422.504 262.758 411.796 274.568 402.347C292.836 387.727 306.038 377.171 301.595 347.636C297.038 317.355 273.598 266.68 223.208 178.187C192.435 124.143 176.992 82.7762 176.992 54.5549Z" fill="#FAFAFA"/>
<path d="M168.063 53.3438C168.063 40.4544 171.272 30.329 177.675 23.1091C183.994 15.9864 193.46 11.6277 205.826 10.1558C215.706 8.98108 227.446 9.63574 240.723 12.1091C263.314 16.3104 282.787 24.4144 282.98 24.4998C282.678 24.6757 263.228 16.5731 240.663 12.3784C227.416 9.91571 215.706 9.25842 205.855 10.4331C193.563 11.8917 184.151 16.2211 177.883 23.2931C168.483 33.8944 166.008 50.8277 170.532 73.6251C175.84 100.368 190.886 135.622 215.251 178.417C265.014 265.814 287.948 316.137 291.942 346.685C295.8 376.205 282.158 386.565 263.288 400.912C250.839 410.369 236.728 421.088 223.7 439.929C212.727 455.798 209.252 473.017 213.37 491.117C220.095 520.638 246.076 547.589 266.675 564.994C289.016 583.862 310.023 595.901 310.234 596.02C309.888 596.14 288.856 584.093 266.503 565.21C253.372 554.116 242.359 542.869 233.775 531.781C223.035 517.91 216.08 504.252 213.102 491.174C211.98 486.24 211.419 481.356 211.419 476.56C211.412 463.7 215.443 451.377 223.471 439.772C236.526 420.894 250.652 410.158 263.12 400.692C281.923 386.404 295.508 376.08 291.67 346.728C287.683 316.21 264.754 265.914 215.012 178.552C190.63 135.737 175.578 100.446 170.264 73.6757C168.799 66.2823 168.063 59.4971 168.063 53.3438Z" fill="#FAFAFA"/>
<path d="M159.065 52.0429C159.065 39.2776 162.236 29.2669 168.557 22.1562C174.683 15.2615 183.821 11.0456 195.725 9.61493C205.228 8.4696 216.505 9.09625 229.248 11.4789C250.929 15.5242 269.58 23.3522 269.769 23.4296C269.475 23.6042 250.849 15.7882 229.192 11.7443C209.231 8.02155 182.544 6.83624 168.76 22.3376C159.403 32.8682 157.001 49.8349 161.631 72.7576C167.08 99.7322 182.363 135.404 207.053 178.78C232.269 223.059 250.397 257.772 262.468 284.907C273.977 310.787 280.392 330.719 282.064 345.839C283.559 359.348 281.42 369.703 275.337 378.415C269.759 386.395 261.456 392.394 251.832 399.339C238.72 408.802 223.865 419.523 210.489 438.863C199.508 454.728 196.036 471.951 200.161 490.048C206.885 519.572 232.859 546.522 253.468 563.931C275.803 582.8 296.816 594.832 297.023 594.952C296.675 595.07 275.639 583.022 253.288 564.142C240.156 553.046 229.145 541.799 220.56 530.711C209.821 516.84 202.867 503.183 199.892 490.108C198.764 485.174 198.203 480.292 198.203 475.498C198.203 462.63 202.236 450.311 210.261 438.703C223.664 419.331 238.541 408.588 251.671 399.116C271.025 385.139 285.016 375.044 281.789 345.867C280.121 330.778 273.715 310.872 262.216 285.023C250.145 257.898 232.027 223.192 206.819 178.915C182.103 135.515 166.809 99.8176 161.357 72.8123C159.829 65.2349 159.065 58.3069 159.065 52.0429Z" fill="#FAFAFA"/>
<path d="M150.044 50.7056C150.044 38.0656 153.171 28.179 159.402 21.1896C165.344 14.5243 174.155 10.4443 185.584 9.05493C194.72 7.94696 205.544 8.55231 217.752 10.8403C238.532 14.739 256.372 22.291 256.554 22.363C256.27 22.5416 238.454 15.0016 217.702 11.111C198.57 7.52295 172.963 6.39227 159.607 21.3736C150.294 31.8216 147.97 48.803 152.706 71.863C158.295 99.075 173.823 135.17 198.862 179.144C223.792 222.934 241.676 257.396 253.527 284.487C264.751 310.15 270.87 329.963 272.231 345.046C273.438 358.462 271.016 368.73 264.606 377.36C258.755 385.243 250.235 391.08 240.374 397.844C226.59 407.288 210.968 417.991 197.268 437.795C186.296 453.659 182.824 470.88 186.946 488.978C193.671 518.502 219.648 545.451 240.25 562.864C262.584 581.727 283.595 593.762 283.811 593.883C283.463 594.003 262.427 581.954 240.075 563.071C226.944 551.978 215.93 540.73 207.348 529.643C196.606 515.776 189.654 502.115 186.674 489.044C185.552 484.103 184.987 479.223 184.987 474.427C184.986 461.56 189.018 449.239 197.047 437.632C210.772 417.795 226.414 407.07 240.218 397.614C259.407 384.456 274.572 374.07 271.951 345.074C270.595 330.02 264.484 310.235 253.271 284.599C241.427 257.514 223.551 223.066 198.619 179.282C173.564 135.279 158.024 99.1603 152.435 71.9189C150.838 64.1576 150.044 57.0816 150.044 50.7056Z" fill="#FAFAFA"/>
<path d="M140.994 49.3239C140.994 36.8225 144.068 27.0679 150.215 20.2065C155.967 13.7759 164.444 9.83588 175.419 8.48785C184.186 7.42249 194.556 7.99323 206.243 10.1972C226.132 13.9479 243.174 21.2198 243.344 21.2972C243.064 21.4785 226.047 14.2105 206.19 10.4719C187.879 7.01318 163.346 5.93719 150.42 20.3879C144.324 27.1999 141.267 36.8905 141.267 49.3159C141.267 55.7878 142.096 63.0025 143.758 70.9359C149.492 98.3905 165.278 134.919 190.66 179.508C215.35 222.857 232.995 257.073 244.615 284.112C255.554 309.569 261.386 329.261 262.434 344.309C264.447 373.281 248.766 383.488 228.911 396.409C214.45 405.821 198.06 416.49 184.062 436.724C173.08 452.596 169.607 469.814 173.731 487.909C180.455 517.436 206.432 544.382 227.038 561.793C249.375 580.661 270.386 592.696 270.595 592.813C270.247 592.932 249.219 580.892 226.859 562.002C213.731 550.909 202.72 539.661 194.134 528.572C183.396 514.705 176.442 501.048 173.464 487.973C172.336 483.034 171.774 478.152 171.774 473.358C171.774 460.497 175.804 448.174 183.831 436.567C197.858 416.289 214.276 405.603 228.762 396.177C248.542 383.307 264.164 373.138 262.156 344.322C260.034 313.832 237.912 263.041 190.423 179.644C165.02 135.032 149.23 98.4745 143.488 70.9958C141.823 63.0452 140.994 55.8065 140.994 49.3239Z" fill="#FAFAFA"/>
<path d="M131.915 47.8971C131.915 35.5451 134.939 25.9411 140.983 19.2064C146.54 13.0118 154.691 9.21582 165.211 7.91711C173.614 6.88245 183.539 7.43311 194.708 9.54779C213.716 13.1545 229.964 20.1558 230.128 20.2264C229.858 20.4118 213.631 13.4211 194.646 9.81982C177.156 6.50116 153.683 5.46912 141.188 19.3904C135.192 26.0718 132.184 35.6171 132.184 47.8971C132.184 54.4824 133.052 61.8464 134.783 69.9891C140.676 97.6784 156.722 134.65 182.468 179.874C229.53 262.526 251.179 313.024 252.672 343.612C254.067 372.405 237.912 382.396 217.448 395.038C202.298 404.404 185.124 415.016 170.844 435.658C159.872 451.525 156.394 468.745 160.52 486.848C167.246 516.365 193.219 543.313 213.827 560.725C236.159 579.594 257.17 591.626 257.383 591.744C257.036 591.866 236.002 579.817 213.65 560.934C200.519 549.842 189.504 538.593 180.92 527.504C170.184 513.637 163.226 499.978 160.248 486.905C159.126 481.964 158.562 477.084 158.562 472.288C158.562 459.426 162.592 447.104 170.622 435.5C184.93 414.812 202.13 404.185 217.303 394.805C237.684 382.206 253.783 372.261 252.395 343.622C250.908 313.084 229.267 262.621 182.228 180.008C156.466 134.765 140.414 97.7664 134.511 70.0438C132.776 61.8931 131.915 54.5038 131.915 47.8971Z" fill="#FAFAFA"/>
<path d="M122.796 46.4298C122.796 34.2418 125.774 24.7898 131.712 18.1924C137.08 12.2338 144.906 8.58179 154.971 7.33246C163.008 6.33246 172.492 6.8631 183.147 8.90045C201.291 12.3564 216.759 19.0911 216.912 19.1644C216.651 19.3471 201.198 12.6258 183.094 9.16846C166.404 5.98041 143.975 4.99243 131.918 18.3778C126.027 24.9164 123.075 34.3124 123.075 46.4298C123.075 53.1284 123.975 60.6605 125.782 69.0031C131.843 96.9431 148.155 134.364 174.275 180.236C220.922 262.16 242.099 312.354 242.939 342.959C243.304 356.1 240.01 366.115 232.582 374.488C225.852 382.07 216.207 387.727 205.983 393.727C190.135 403.027 172.175 413.57 157.635 434.59C146.658 450.46 143.184 467.683 147.307 485.772C154.031 515.296 180.008 542.246 200.608 559.652C222.944 578.524 243.96 590.556 244.166 590.678C243.82 590.799 222.788 578.755 200.439 559.866C187.302 548.77 176.295 537.522 167.71 526.442C156.97 512.567 150.015 498.911 147.035 485.839C145.91 480.899 145.347 476.015 145.347 471.219C145.347 458.358 149.378 446.035 157.407 434.436C171.979 413.368 189.974 402.803 205.847 393.486C226.848 381.156 243.443 371.416 242.662 342.97C241.828 312.406 220.658 262.262 174.03 180.375C147.903 134.475 131.576 97.0284 125.518 69.0631C123.703 60.7057 122.796 53.1498 122.796 46.4298Z" fill="#FAFAFA"/>
<path d="M113.654 44.9178C113.654 32.9005 116.575 23.6125 122.402 17.1619C127.575 11.4459 135.07 7.93384 144.687 6.73785C152.371 5.77521 161.411 6.28583 171.567 8.23651C188.848 11.5632 203.556 18.0258 203.706 18.0965C203.446 18.2778 188.758 11.8259 171.507 8.51251C155.611 5.44714 134.223 4.50049 122.607 17.3499C113.522 27.3978 111.559 44.4365 116.76 67.9952C122.984 96.1752 139.575 134.059 166.08 180.599C194.48 230.486 213.272 268.734 223.518 297.531C232.886 323.875 235.407 342.73 231.459 356.879C226.5 374.635 211.682 382.899 194.518 392.464C177.967 401.69 159.204 412.146 144.419 433.522C133.442 449.39 129.968 466.607 134.088 484.71C140.82 514.226 166.794 541.18 187.398 558.584C209.728 577.455 230.747 589.488 230.959 589.61C230.611 589.735 209.572 577.686 187.224 558.795C174.094 547.708 163.082 536.454 154.494 525.368C143.758 511.5 136.796 497.84 133.82 484.77C132.698 479.828 132.138 474.951 132.138 470.151C132.138 457.287 136.167 444.964 144.195 433.366C159.015 411.932 177.8 401.463 194.384 392.219C211.491 382.682 226.262 374.45 231.196 356.802C239.243 327.987 219.7 275.327 165.839 180.735C139.324 134.172 122.722 96.2632 116.49 68.0498C114.598 59.4752 113.654 51.7565 113.654 44.9178Z" fill="#FAFAFA"/>
<path d="M104.468 43.3631C104.468 31.5338 107.33 22.4124 113.046 16.1191C118.022 10.6378 125.192 7.2724 134.366 6.12976C141.691 5.20837 150.304 5.69904 159.959 7.57776C176.392 10.7644 190.351 16.9617 190.487 17.0258C190.238 17.2151 176.302 11.0258 159.902 7.84705C144.786 4.9057 124.422 3.99109 113.248 16.3018C104.244 26.2297 102.379 43.2697 107.707 66.9471C114.116 95.3751 130.991 133.732 157.88 180.964C185.826 230.043 204.275 267.816 214.287 296.458C219.014 309.998 221.871 321.438 223.019 331.432C224.087 340.763 223.635 348.632 221.64 355.484C216.371 373.607 200.931 381.779 183.058 391.242C165.79 400.388 146.223 410.747 131.204 432.451C120.232 448.322 116.759 465.544 120.876 483.64C127.606 513.163 153.583 540.115 174.183 557.522C196.523 576.386 217.531 588.419 217.74 588.546C217.392 588.664 196.363 576.615 174.011 557.727C160.878 546.639 149.863 535.392 141.284 524.304C130.538 510.436 123.59 496.772 120.61 483.699C119.48 478.76 118.922 473.886 118.922 469.083C118.922 456.223 122.952 443.899 130.979 432.296C146.031 410.531 165.634 400.154 182.93 390.996C200.746 381.566 216.139 373.418 221.379 355.412C225.475 341.335 223.135 322.631 214.024 296.546C204.022 267.927 185.578 230.162 157.646 181.1C130.735 133.848 113.846 95.4631 107.439 67.0071C105.462 58.2084 104.468 50.3177 104.468 43.3631Z" fill="#FAFAFA"/>
<path d="M95.2466 41.7594C95.2466 30.1328 98.0506 21.2007 103.636 15.0648C108.416 9.8194 115.265 6.60474 123.999 5.5141C130.972 4.6394 139.16 5.1087 148.325 6.90204C163.928 9.96204 177.145 15.8954 177.276 15.9567C177.035 16.1487 163.839 10.2247 148.271 7.17542C133.921 4.35944 114.571 3.47943 103.839 15.2487C98.3026 21.3287 95.5239 30.2047 95.5239 41.7594C95.5239 48.8034 96.5586 56.8514 98.6252 65.8687C105.212 94.5461 122.391 133.391 149.687 181.326C177.192 229.63 195.313 266.953 205.083 295.419C209.693 308.838 212.443 320.206 213.496 330.159C214.475 339.451 213.948 347.291 211.877 354.13C206.288 372.618 190.208 380.705 171.591 390.069C153.608 399.115 133.227 409.365 117.993 431.389C107.017 447.251 103.543 464.474 107.669 482.571C114.393 512.093 140.367 539.041 160.969 556.445C183.299 575.321 204.321 587.353 204.528 587.474C204.179 587.597 183.151 575.547 160.795 556.662C147.663 545.569 136.656 534.322 128.065 523.234C117.328 509.367 110.376 495.702 107.395 482.631C106.271 477.69 105.709 472.814 105.709 468.011C105.709 455.154 109.737 442.833 117.765 431.226C133.041 409.151 153.452 398.879 171.464 389.817C190.031 380.487 206.057 372.423 211.615 354.047C215.804 340.181 213.585 321.031 204.821 295.509C195.056 267.059 176.941 229.755 149.447 181.465C122.141 133.506 104.952 94.6328 98.3599 65.9327C96.2852 56.8967 95.2466 48.8314 95.2466 41.7594Z" fill="#FAFAFA"/>
<path d="M85.9849 40.113C85.9849 28.6997 88.7209 19.9571 94.1822 13.9944C98.7662 8.98907 105.298 5.92108 113.594 4.87976C120.216 4.05042 127.978 4.50507 136.67 6.2251C151.445 9.15839 163.942 14.8264 164.065 14.8877C163.828 15.085 151.356 9.41974 136.606 6.49841C123.022 3.80237 104.665 2.95038 94.3875 14.1824C88.9742 20.0944 86.2662 28.7757 86.2662 40.1064C86.2595 47.2704 87.3475 55.4957 89.5142 64.7624C96.2955 93.6864 113.781 133.026 141.489 181.69C168.574 229.253 186.378 266.124 195.921 294.41C204.484 319.794 206.529 338.897 202.168 352.8C196.258 371.669 179.514 379.669 160.128 388.93C141.42 397.866 120.216 408.002 104.78 430.32C93.8049 446.182 90.3315 463.408 94.4515 481.501C101.182 511.022 127.149 537.97 147.758 555.384C170.089 574.248 191.106 586.289 191.313 586.409C190.969 586.526 169.936 574.478 147.585 555.594C134.45 544.5 123.436 533.256 114.854 522.165C104.112 508.3 97.1582 494.636 94.1822 481.569C93.0542 476.625 92.4942 471.746 92.4942 466.944C92.4942 454.088 96.5195 441.76 104.552 430.162C120.028 407.782 141.273 397.632 160.01 388.681C179.34 379.449 196.03 371.468 201.905 352.722C206.252 338.869 204.206 319.822 195.66 294.492C186.118 266.23 168.325 229.372 141.254 181.825C113.528 133.142 96.0315 93.769 89.2462 64.8197C87.0742 55.545 85.9849 47.2997 85.9849 40.113Z" fill="#FAFAFA"/>
<path d="M76.6846 38.4131C76.6846 27.2344 79.3539 18.6997 84.6739 12.9064C89.0606 8.1424 95.2726 5.23438 103.138 4.24902C109.421 3.46106 116.769 3.89441 124.978 5.5437C138.949 8.3504 150.735 13.7637 150.849 13.8197C150.614 14.0157 138.855 8.61176 124.921 5.81573C112.078 3.23572 94.7072 2.40637 84.8766 13.097C79.6059 18.8331 76.9606 27.309 76.9606 38.405C76.9606 45.6877 78.0992 54.0984 80.3766 63.6117C87.3512 92.793 105.157 132.641 133.295 182.056C159.97 228.901 177.463 265.334 186.785 293.429C195.139 318.62 197.015 337.621 192.511 351.506C186.274 370.754 168.847 378.666 148.667 387.829C129.226 396.654 107.197 406.652 91.5686 429.249C80.5912 445.116 77.1152 462.337 81.2379 480.437C87.9619 509.958 113.942 536.906 134.549 554.313C156.875 573.182 177.894 585.218 178.102 585.336C177.754 585.46 156.725 573.412 134.366 554.528C121.237 543.436 110.226 532.186 101.641 521.094C90.9032 507.229 83.9486 493.572 80.9712 480.496C79.8432 475.558 79.2819 470.676 79.2819 465.88C79.2819 453.02 83.3126 440.693 91.3379 429.092C107.01 406.438 129.079 396.417 148.551 387.578C168.673 378.444 186.046 370.553 192.245 351.424C196.738 337.592 194.862 318.648 186.523 293.514C177.21 265.432 159.718 229.018 133.054 182.19C104.902 132.756 87.0899 92.8757 80.1019 63.6757C77.8232 54.1477 76.6846 45.7157 76.6846 38.4131Z" fill="#FAFAFA"/>
<path d="M66.064 464.809C66.064 451.949 70.104 439.629 78.1213 428.023C93.98 405.103 116.887 395.223 137.097 386.507C158.033 377.47 176.109 369.675 182.641 350.157C192.276 321.354 174.461 269.667 124.86 182.557C96.268 132.345 78.1213 91.9487 70.924 62.4954C65.0106 38.2701 66.42 21.2247 75.1106 11.8154C79.2973 7.29004 85.192 4.52203 92.6386 3.59406C98.5826 2.85406 105.52 3.27667 113.265 4.85803C126.44 7.53668 137.531 12.702 137.637 12.7501C137.407 12.9501 126.347 7.79938 113.203 5.12469C101.095 2.65936 84.6946 1.85809 75.3146 12.0007C70.1893 17.5514 67.612 25.8074 67.612 36.6554C67.612 44.0568 68.8026 52.6527 71.1946 62.4261C78.388 91.8581 96.52 132.234 125.104 182.418C151.375 228.574 168.579 264.573 177.676 292.482C185.836 317.481 187.543 336.381 182.904 350.241C176.331 369.878 158.197 377.698 137.204 386.759C117.027 395.461 94.1613 405.327 78.352 428.181C67.376 444.046 63.904 461.269 68.0213 479.369C74.752 508.89 100.728 535.839 121.335 553.246C143.668 572.118 164.679 584.15 164.885 584.27C164.541 584.389 143.509 572.339 121.159 553.462C108.025 542.366 97.0106 531.115 88.4266 520.029C77.6893 506.161 70.732 492.503 67.7573 479.433C66.632 474.489 66.064 469.611 66.064 464.809Z" fill="#FAFAFA"/>
<path d="M52.8525 463.74C52.8525 450.88 56.8832 438.559 64.9125 426.952C80.9352 403.786 104.682 394.051 125.639 385.46C147.411 376.534 166.213 368.826 173.077 348.914C177.829 335.135 176.285 316.4 168.338 291.644C159.451 263.952 142.555 228.384 116.665 182.922C87.6232 131.915 69.1312 90.9844 61.7112 61.2711C59.2019 51.2137 57.9459 42.3951 57.9459 34.8631C57.9459 24.2017 60.4632 16.1191 65.4912 10.7057C69.4765 6.42041 75.0552 3.8031 82.0779 2.93774C87.6925 2.24176 94.2312 2.65778 101.519 4.16174C113.915 6.7204 124.323 11.6297 124.427 11.6871C124.206 11.8857 113.818 6.98309 101.459 4.43243C90.0672 2.08044 74.6165 1.29108 65.6925 10.8978C57.1845 20.0551 55.9325 36.9871 61.9845 61.2084C69.3952 90.8951 87.8739 131.8 116.902 182.787C142.801 228.267 159.711 263.848 168.603 291.562C176.562 316.372 178.113 335.164 173.341 349.01C170.185 358.166 164.353 365.335 154.993 371.582C146.645 377.152 136.49 381.31 125.743 385.714C104.825 394.294 81.1205 404.012 65.1432 427.112C54.1619 442.979 50.6845 460.198 54.8125 478.298C61.5365 507.819 87.5099 534.771 108.117 552.176C130.45 571.047 151.463 583.079 151.674 583.203C151.326 583.32 130.297 571.274 107.941 552.388C94.8099 541.298 83.8005 530.05 75.2152 518.96C64.4752 505.096 57.5205 491.435 54.5419 478.364C53.4152 473.422 52.8525 468.543 52.8525 463.74Z" fill="#FAFAFA"/>
<path d="M39.6455 462.678C39.6362 449.814 43.6722 437.49 51.6962 425.885C67.8895 402.485 92.4829 392.901 114.183 384.445C136.816 375.625 156.362 368.014 163.563 347.706C168.44 333.956 167.044 315.318 159.287 290.753C150.612 263.253 133.988 228.105 108.466 183.282C78.9575 131.456 60.1189 89.9796 52.4602 60.0129C46.2282 35.5956 47.3562 18.6356 55.8069 9.5849C59.5869 5.53955 64.8642 3.07422 71.4775 2.26758C76.7575 1.61957 82.8989 2.0249 89.7389 3.46228C101.374 5.90759 111.116 10.5676 111.212 10.6196C110.996 10.8169 101.283 6.16357 89.6789 3.72888C78.9922 1.48224 64.4775 0.708923 56.0082 9.77826C47.6255 18.7502 46.5229 35.6276 52.7295 59.9489C60.3749 89.8929 79.2122 131.338 108.711 183.148C134.24 227.98 150.872 263.153 159.554 290.668C167.323 315.297 168.722 333.984 163.823 347.794C160.511 357.133 154.424 364.405 144.666 370.666C135.976 376.252 125.436 380.356 114.283 384.704C92.6189 393.146 68.0695 402.716 51.9269 426.045C40.9482 441.906 37.4762 459.134 41.5962 477.229C48.3269 506.756 74.3002 533.704 94.9095 551.108C117.24 569.978 138.247 582.016 138.464 582.133C138.118 582.25 117.079 570.209 94.7309 551.322C81.5989 540.226 70.5855 528.981 61.9989 517.89C51.2642 504.024 44.3095 490.364 41.3255 477.293C40.2042 472.354 39.6455 467.478 39.6455 462.678Z" fill="#FAFAFA"/>
<path d="M26.4272 461.608C26.4272 448.744 30.4579 436.424 38.4846 424.822C45.7912 414.257 55.4966 405.63 68.1672 398.452C79.3272 392.122 91.2206 387.714 102.726 383.454C125.261 375.106 146.551 367.226 154.09 346.524C159.085 332.793 157.837 314.269 150.265 289.881C141.787 262.588 125.437 227.837 100.271 183.646C70.2806 130.97 51.0699 88.9396 43.1699 58.713C36.7726 34.2117 37.7446 17.3049 46.0619 8.45563C54.1619 -0.168396 67.8632 0.592957 77.9299 2.74896C88.8152 5.08893 97.9099 9.50494 97.9979 9.54761C97.7912 9.75031 88.7206 5.34229 77.8619 3.01562C67.8739 0.883667 54.2752 0.115662 46.2566 8.64368C38.0179 17.4197 37.0686 34.2423 43.4392 58.645C51.3299 88.8477 70.5366 130.856 100.514 183.512C125.686 227.717 142.045 262.485 150.526 289.797C158.121 314.248 159.37 332.836 154.349 346.617C150.885 356.13 144.535 363.492 134.374 369.788C125.326 375.381 114.394 379.436 102.829 383.712C80.4086 392.01 55.0046 401.424 38.7139 424.973C27.7326 440.845 24.2579 458.065 28.3872 476.166C35.1112 505.685 61.0846 532.632 81.6872 550.037C104.025 568.906 125.038 580.946 125.249 581.064C124.901 581.185 103.869 569.138 81.5152 550.254C68.3779 539.16 57.3712 527.914 48.7899 516.824C38.0486 502.957 31.0952 489.296 28.1166 476.225C26.9886 471.284 26.4272 466.408 26.4272 461.608Z" fill="#FAFAFA"/>
<path d="M13.2134 460.539C13.212 447.675 17.244 435.355 25.2707 423.75C32.6414 413.09 42.5587 404.443 55.5774 397.303C67.0534 391.011 79.3654 386.681 91.2734 382.49C114.671 374.255 136.777 366.474 144.659 345.363C149.771 331.671 148.663 313.246 141.263 289.041C132.979 261.947 116.891 227.591 92.0734 184.014C61.588 130.461 41.9934 87.858 33.8427 57.378C30.916 46.4207 29.4494 37.006 29.4494 29.17C29.4494 19.4153 31.716 12.1047 36.244 7.31799C43.8907 -0.768677 56.6934 -0.0180054 66.0854 2.03534C76.2414 4.25934 84.7027 8.43665 84.788 8.47931C84.5787 8.68732 76.1454 4.52197 66.0187 2.30194C56.7014 0.264648 44.0067 -0.486023 36.444 7.51129C28.3494 16.07 27.564 32.822 34.1094 57.3033C42.2534 87.7593 61.8414 130.343 92.3214 183.873C117.139 227.474 133.24 261.851 141.524 288.959C148.944 313.229 150.053 331.71 144.913 345.461C141.296 355.155 134.681 362.618 124.103 368.922C114.695 374.537 103.364 378.527 91.3654 382.746C68.1974 390.905 41.9334 400.143 25.4947 423.905C14.5227 439.777 11.0494 456.995 15.1734 475.094C21.8974 504.617 47.8734 531.563 68.48 548.974C90.8134 567.845 111.821 579.877 112.035 579.994C111.687 580.117 90.6534 568.07 68.3014 549.186C55.1707 538.09 44.16 526.846 35.5747 515.759C24.836 501.886 17.8814 488.225 14.9 475.157C13.7787 470.215 13.2134 465.342 13.2134 460.539Z" fill="#FAFAFA"/>
<path d="M0 459.471C0 446.604 4.028 434.284 12.0573 422.686C19.4947 411.932 29.6093 403.259 42.9827 396.172C54.7787 389.92 67.5053 385.662 79.82 381.546C104.101 373.426 127.041 365.748 135.265 344.231C140.491 330.574 139.516 312.254 132.284 288.222C124.195 261.34 108.359 227.37 83.8827 184.374C52.8747 129.922 32.8893 86.7282 24.4693 55.9989C17.7133 31.3416 18.3507 14.5815 26.3533 6.17224C33.5507 -1.38379 45.4733 -0.639771 54.2053 1.31488C63.648 3.42957 71.5 7.37488 71.5773 7.41089C71.3747 7.62018 63.552 3.6922 54.14 1.58154C45.48 -0.359802 33.6653 -1.09576 26.556 6.36292C18.624 14.6922 18.0147 31.3695 24.7387 55.9229C33.1453 86.6335 53.1253 129.807 84.1213 184.238C108.611 227.25 124.451 261.238 132.551 288.143C139.8 312.232 140.775 330.612 135.525 344.331C131.751 354.211 124.863 361.763 113.859 368.092C104.083 373.723 92.34 377.648 79.9067 381.802C55.9787 389.807 28.856 398.879 12.2853 422.842C1.30667 438.71 -2.16533 455.931 1.96 474.031C8.684 503.546 34.6587 530.498 55.26 547.904C77.5973 566.776 98.612 578.808 98.8227 578.93C98.4693 579.055 77.4413 567.004 55.0853 548.119C41.9533 537.028 30.9467 525.779 22.36 514.687C11.62 500.818 4.66667 487.16 1.68933 474.09C0.562667 469.147 0 464.27 0 459.471Z" fill="#FAFAFA"/>
<path d="M189.305 238.167L188.012 240.404L194.125 246.517L189.305 238.167Z" fill="#EFD81D"/>
<path d="M123.746 351.717L128.562 356.533H135.153L126.159 347.538L123.746 351.717Z" fill="#EFD81D"/>
<path d="M181.262 252.094L160.231 231.063L156.27 237.925L177.301 258.956L181.262 252.094Z" fill="#EFD81D"/>
<path d="M143.194 356.533L171.924 385.264H178.94L150.208 356.533H143.194Z" fill="#EFD81D"/>
<path d="M186.774 242.551L165.741 221.518L161.625 228.649L182.657 249.68L186.774 242.551Z" fill="#EFD81D"/>
<path d="M126.159 347.538L105.126 326.507L102.715 330.685L123.746 351.717L126.159 347.538Z" fill="#EFD81D"/>
<path d="M128.562 356.533L157.294 385.264H163.884L135.153 356.533H128.562Z" fill="#EFD81D"/>
<path d="M216.351 356.533L245.083 385.264H254.213L225.482 356.533H216.351Z" fill="#EFD81D"/>
<path d="M81.291 367.789L98.7659 385.264H103.665L83.0852 364.684L81.291 367.789Z" fill="#EFD81D"/>
<path d="M201.72 356.533L230.45 385.264H239.158L210.427 356.533H201.72Z" fill="#EFD81D"/>
<path d="M172.457 356.533L201.187 385.264H209.049L180.318 356.533H172.457Z" fill="#EFD81D"/>
<path d="M187.088 356.533L215.819 385.264H224.103L195.373 356.533H187.088Z" fill="#EFD81D"/>
<path d="M157.825 356.533L186.556 385.264H193.994L165.263 356.533H157.825Z" fill="#EFD81D"/>
<path d="M159.221 290.272L138.188 269.24L134.847 275.029L155.879 296.06L159.221 290.272Z" fill="#EFD81D"/>
<path d="M92.0037 349.237L128.029 385.264H133.669L94.0673 345.662L92.0037 349.237Z" fill="#EFD81D"/>
<path d="M230.983 356.533L259.714 385.264H269.267L240.537 356.533H230.983Z" fill="#EFD81D"/>
<path d="M164.731 280.728L143.7 259.696L140.202 265.753L161.235 286.784L164.731 280.728Z" fill="#EFD81D"/>
<path d="M97.397 339.894L142.767 385.264H148.829L99.6164 336.05L97.397 339.894Z" fill="#EFD81D"/>
<path d="M170.243 271.184L149.21 250.151L145.558 256.476L166.59 277.508L170.243 271.184Z" fill="#EFD81D"/>
<path d="M148.2 309.361L127.169 288.328L124.137 293.581L145.168 314.612L148.2 309.361Z" fill="#EFD81D"/>
<path d="M137.18 328.45L116.147 307.418L113.426 312.133L134.457 333.164L137.18 328.45Z" fill="#EFD81D"/>
<path d="M153.711 299.816L132.679 278.785L129.491 284.305L150.524 305.336L153.711 299.816Z" fill="#EFD81D"/>
<path d="M86.6472 358.513L113.398 385.264H118.72L88.5947 355.14L86.6472 358.513Z" fill="#EFD81D"/>
<path d="M142.69 318.906L121.657 297.873L118.78 302.857L139.813 323.888L142.69 318.906Z" fill="#EFD81D"/>
<path d="M131.669 337.993L110.637 316.962L108.069 321.409L129.102 342.441L131.669 337.993Z" fill="#EFD81D"/>
<path d="M214.113 281.136L292.605 359.63L277.243 333.021L198.75 254.528L214.113 281.136Z" fill="#EFD81D"/>
<path d="M166.98 219.372L188.012 240.404L189.304 238.167L194.125 246.517L272.618 325.01L256.677 297.4L171.252 211.974L166.98 219.372Z" fill="#EFD81D"/>
<path d="M234.099 315.754L303.61 385.264H307.405L297.808 368.641L219.314 290.148L234.099 315.754Z" fill="#EFD81D"/>
<path d="M172.335 210.096L252.631 290.392L236.112 261.781L176.762 202.429L172.335 210.096Z" fill="#EFD81D"/>
<path d="M175.752 261.639L154.72 240.608L150.913 247.201L171.946 268.232L175.752 261.639Z" fill="#EFD81D"/>
<path d="M189.305 180.705L188.48 182.133L192.381 186.035L189.305 180.705Z" fill="#EFD81D"/>
<path d="M183.048 191.544L212.657 221.155L195.271 191.041L187.706 183.475L183.048 191.544Z" fill="#EFD81D"/>
<path d="M177.691 200.82L232.644 255.773L215.547 226.161L182.272 192.886L177.691 200.82Z" fill="#EFD81D"/>
<path d="M245.616 356.533L274.346 385.264H284.321L255.592 356.533H245.616Z" fill="#EFD81D"/>
<path d="M254.087 350.374L288.977 385.264H299.378L239.881 325.767L254.087 350.374Z" fill="#EFD81D"/>
<path d="M74 380.418L78.8447 385.264H84.1349L75.9362 377.065L74 380.418Z" fill="#EFD81D"/>
<path d="M79.4324 371.008L77.5752 374.227L88.6107 385.264H93.6885L79.4324 371.008Z" fill="#EFD81D"/>
<path d="M188.48 182.133L187.706 183.475L195.271 191.042L192.381 186.034L188.48 182.133Z" fill="#EFD81D"/>
<path d="M255.899 278.364L254.607 280.601L260.72 286.714L255.899 278.364Z" fill="#EFD81D"/>
<path d="M190.34 391.914L195.157 396.73H201.748L192.754 387.735L190.34 391.914Z" fill="#EFD81D"/>
<path d="M247.857 292.291L226.826 271.26L222.864 278.122L243.895 299.153L247.857 292.291Z" fill="#EFD81D"/>
<path d="M209.789 396.73L238.519 425.461H245.534L216.803 396.73H209.789Z" fill="#EFD81D"/>
<path d="M253.368 282.748L232.336 261.716L228.219 268.846L249.251 289.877L253.368 282.748Z" fill="#EFD81D"/>
<path d="M192.754 387.735L171.721 366.704L169.309 370.882L190.34 391.914L192.754 387.735Z" fill="#EFD81D"/>
<path d="M195.157 396.73L223.888 425.461H230.478L201.748 396.73H195.157Z" fill="#EFD81D"/>
<path d="M282.946 396.73L311.677 425.461H320.808L292.077 396.73H282.946Z" fill="#EFD81D"/>
<path d="M147.886 407.987L165.361 425.461H170.26L149.68 404.881L147.886 407.987Z" fill="#EFD81D"/>
<path d="M268.315 396.73L297.045 425.461H305.752L277.022 396.73H268.315Z" fill="#EFD81D"/>
<path d="M239.052 396.73L267.782 425.461H275.644L246.913 396.73H239.052Z" fill="#EFD81D"/>
<path d="M253.683 396.73L282.413 425.461H290.698L261.968 396.73H253.683Z" fill="#EFD81D"/>
<path d="M224.42 396.73L253.151 425.461H260.589L231.857 396.73H224.42Z" fill="#EFD81D"/>
<path d="M225.816 330.469L204.783 309.437L201.442 315.226L222.474 336.257L225.816 330.469Z" fill="#EFD81D"/>
<path d="M158.598 389.434L194.624 425.461H200.264L160.662 385.859L158.598 389.434Z" fill="#EFD81D"/>
<path d="M297.578 396.73L326.309 425.461H335.862L307.132 396.73H297.578Z" fill="#EFD81D"/>
<path d="M231.326 320.925L210.294 299.893L206.797 305.95L227.83 326.981L231.326 320.925Z" fill="#EFD81D"/>
<path d="M163.992 380.091L209.362 425.461H215.424L166.211 376.247L163.992 380.091Z" fill="#EFD81D"/>
<path d="M236.837 311.381L215.804 290.348L212.153 296.674L233.184 317.705L236.837 311.381Z" fill="#EFD81D"/>
<path d="M214.795 349.558L193.763 328.525L190.731 333.778L211.762 354.809L214.795 349.558Z" fill="#EFD81D"/>
<path d="M203.775 368.647L182.742 347.615L180.02 352.33L201.052 373.362L203.775 368.647Z" fill="#EFD81D"/>
<path d="M220.306 340.013L199.273 318.982L196.086 324.502L217.119 345.533L220.306 340.013Z" fill="#EFD81D"/>
<path d="M153.242 398.71L179.993 425.461H185.315L155.19 395.337L153.242 398.71Z" fill="#EFD81D"/>
<path d="M209.285 359.103L188.252 338.07L185.375 343.054L206.408 364.085L209.285 359.103Z" fill="#EFD81D"/>
<path d="M198.263 378.19L177.232 357.159L174.664 361.606L195.696 382.638L198.263 378.19Z" fill="#EFD81D"/>
<path d="M280.708 321.333L359.2 399.827L343.838 373.218L265.345 294.725L280.708 321.333Z" fill="#EFD81D"/>
<path d="M233.575 259.569L254.607 280.601L255.899 278.365L260.72 286.714L339.213 365.207L323.272 337.597L237.847 252.171L233.575 259.569Z" fill="#EFD81D"/>
<path d="M300.694 355.951L370.204 425.462H374L364.403 408.838L285.909 330.345L300.694 355.951Z" fill="#EFD81D"/>
<path d="M238.93 250.293L319.226 330.589L302.707 301.978L243.357 242.626L238.93 250.293Z" fill="#EFD81D"/>
<path d="M242.347 301.836L221.314 280.805L217.508 287.398L238.541 308.429L242.347 301.836Z" fill="#EFD81D"/>
<path d="M255.899 220.903L255.075 222.33L258.976 226.232L255.899 220.903Z" fill="#EFD81D"/>
<path d="M249.642 231.741L279.251 261.352L261.866 231.239L254.301 223.672L249.642 231.741Z" fill="#EFD81D"/>
<path d="M244.286 241.017L299.239 295.97L282.142 266.358L248.867 233.083L244.286 241.017Z" fill="#EFD81D"/>
<path d="M312.21 396.73L340.941 425.461H350.916L322.186 396.73H312.21Z" fill="#EFD81D"/>
<path d="M320.682 390.571L355.571 425.461H365.972L306.475 365.964L320.682 390.571Z" fill="#EFD81D"/>
<path d="M140.595 420.615L145.439 425.461H150.73L142.531 417.262L140.595 420.615Z" fill="#EFD81D"/>
<path d="M146.027 411.205L144.17 414.424L155.205 425.461H160.283L146.027 411.205Z" fill="#EFD81D"/>
<path d="M255.075 222.33L254.301 223.672L261.866 231.239L258.976 226.231L255.075 222.33Z" fill="#EFD81D"/>
</svg>
