<svg width="300" height="245" viewBox="0 0 300 245" fill="none" xmlns="http://www.w3.org/2000/svg">
<path d="M115.304 57.4618L114.012 59.698L120.125 65.8115L115.304 57.4618Z" fill="#DABFFF"/>
<path d="M49.7461 171.011L54.5623 175.827H61.1537L52.1594 166.832L49.7461 171.011Z" fill="#DABFFF"/>
<path d="M107.262 71.3888L86.2314 50.3575L82.2695 57.2191L103.301 78.2505L107.262 71.3888Z" fill="#DABFFF"/>
<path d="M69.1943 175.827L97.9245 204.559H104.94L76.208 175.827H69.1943Z" fill="#DABFFF"/>
<path d="M112.774 61.8456L91.7414 40.8129L87.625 47.9431L108.658 68.9745L112.774 61.8456Z" fill="#DABFFF"/>
<path d="M52.1591 166.833L31.1264 145.801L28.7148 149.98L49.7458 171.011L52.1591 166.833Z" fill="#DABFFF"/>
<path d="M54.5615 175.827L83.2934 204.559H89.8835L61.1529 175.827H54.5615Z" fill="#DABFFF"/>
<path d="M142.352 175.827L171.083 204.559H180.213L151.482 175.827H142.352Z" fill="#DABFFF"/>
<path d="M7.29102 187.084L24.7659 204.559H29.6654L9.08522 183.979L7.29102 187.084Z" fill="#DABFFF"/>
<path d="M127.721 175.827L156.451 204.559H165.158L136.428 175.827H127.721Z" fill="#DABFFF"/>
<path d="M98.457 175.827L127.187 204.559H135.049L106.318 175.827H98.457Z" fill="#DABFFF"/>
<path d="M113.088 175.827L141.818 204.559H150.103L121.373 175.827H113.088Z" fill="#DABFFF"/>
<path d="M83.8252 175.827L112.557 204.559H119.995L91.2628 175.827H83.8252Z" fill="#DABFFF"/>
<path d="M85.2213 109.566L64.1887 88.5347L60.8477 94.3236L81.8794 115.354L85.2213 109.566Z" fill="#DABFFF"/>
<path d="M18.0039 168.532L54.0291 204.559H59.6695L20.0675 164.957L18.0039 168.532Z" fill="#DABFFF"/>
<path d="M156.983 175.827L185.714 204.559H195.267L166.537 175.827H156.983Z" fill="#DABFFF"/>
<path d="M90.7308 100.023L69.6995 78.9901L66.2021 85.047L87.2348 106.078L90.7308 100.023Z" fill="#DABFFF"/>
<path d="M23.3965 159.188L68.767 204.559H74.8287L25.6159 155.345L23.3965 159.188Z" fill="#DABFFF"/>
<path d="M96.2431 90.4781L75.21 69.4455L71.5586 75.7709L92.59 96.8023L96.2431 90.4781Z" fill="#DABFFF"/>
<path d="M74.2 128.655L53.1686 107.623L50.1367 112.875L71.1681 133.907L74.2 128.655Z" fill="#DABFFF"/>
<path d="M63.1804 147.745L42.1477 126.712L39.4258 131.428L60.4572 152.459L63.1804 147.745Z" fill="#DABFFF"/>
<path d="M79.7112 119.111L58.6786 98.0793L55.4912 103.599L76.5239 124.631L79.7112 119.111Z" fill="#DABFFF"/>
<path d="M12.6475 177.808L39.3982 204.559H44.7203L14.5949 174.434L12.6475 177.808Z" fill="#DABFFF"/>
<path d="M68.6903 138.2L47.6576 117.168L44.7803 122.152L65.8134 143.183L68.6903 138.2Z" fill="#DABFFF"/>
<path d="M57.669 157.288L36.6376 136.257L34.0693 140.704L55.102 161.735L57.669 157.288Z" fill="#DABFFF"/>
<path d="M140.113 100.431L218.605 178.924L203.243 152.315L124.75 73.8221L140.113 100.431Z" fill="#DABFFF"/>
<path d="M92.9805 38.6668L114.012 59.6982L115.304 57.4619L120.125 65.8113L198.618 144.305L182.677 116.695L97.2523 31.2681L92.9805 38.6668Z" fill="#DABFFF"/>
<path d="M160.099 135.049L229.61 204.559H233.405L223.808 187.936L145.314 109.442L160.099 135.049Z" fill="#DABFFF"/>
<path d="M98.335 29.3907L178.631 109.686L162.112 81.0755L102.762 21.7235L98.335 29.3907Z" fill="#DABFFF"/>
<path d="M101.752 80.9335L80.7195 59.9021L76.9131 66.4952L97.9457 87.5266L101.752 80.9335Z" fill="#DABFFF"/>
<path d="M115.304 -9.4365e-05L114.479 1.42758L118.381 5.32898L115.304 -9.4365e-05Z" fill="#DABFFF"/>
<path d="M109.048 10.8387L138.657 40.4495L121.271 10.3357L113.706 2.76906L109.048 10.8387Z" fill="#DABFFF"/>
<path d="M103.691 20.1148L158.644 75.0672L141.547 45.4551L108.272 12.1803L103.691 20.1148Z" fill="#DABFFF"/>
<path d="M171.616 175.827L200.346 204.559H210.322L181.592 175.827H171.616Z" fill="#DABFFF"/>
<path d="M180.088 169.668L214.977 204.559H225.378L165.881 145.062L180.088 169.668Z" fill="#DABFFF"/>
<path d="M0 199.712L4.84469 204.559H10.1349L1.93624 196.36L0 199.712Z" fill="#DABFFF"/>
<path d="M5.43243 190.303L3.5752 193.522L14.6107 204.559H19.6885L5.43243 190.303Z" fill="#DABFFF"/>
<path d="M114.48 1.42765L113.706 2.76941L121.271 10.3361L118.382 5.32861L114.48 1.42765Z" fill="#DABFFF"/>
<path d="M181.899 97.6588L180.606 99.8951L186.72 106.009L181.899 97.6588Z" fill="#DABFFF"/>
<path d="M116.341 211.208L121.157 216.024H127.748L118.754 207.03L116.341 211.208Z" fill="#DABFFF"/>
<path d="M173.857 111.586L152.826 90.5544L148.864 97.416L169.896 118.447L173.857 111.586Z" fill="#DABFFF"/>
<path d="M135.789 216.024L164.519 244.756H171.535L142.803 216.024H135.789Z" fill="#DABFFF"/>
<path d="M179.369 102.043L158.336 81.01L154.22 88.1402L175.252 109.172L179.369 102.043Z" fill="#DABFFF"/>
<path d="M118.754 207.03L97.7211 185.998L95.3096 190.177L116.341 211.208L118.754 207.03Z" fill="#DABFFF"/>
<path d="M121.156 216.024L149.888 244.756H156.478L127.748 216.024H121.156Z" fill="#DABFFF"/>
<path d="M208.946 216.024L237.678 244.756H246.808L218.077 216.024H208.946Z" fill="#DABFFF"/>
<path d="M73.8857 227.281L91.3606 244.756H96.2602L75.6799 224.176L73.8857 227.281Z" fill="#DABFFF"/>
<path d="M194.315 216.024L223.046 244.756H231.753L203.023 216.024H194.315Z" fill="#DABFFF"/>
<path d="M165.052 216.024L193.782 244.756H201.643L172.913 216.024H165.052Z" fill="#DABFFF"/>
<path d="M179.683 216.024L208.413 244.756H216.698L187.968 216.024H179.683Z" fill="#DABFFF"/>
<path d="M150.42 216.024L179.151 244.756H186.589L157.857 216.024H150.42Z" fill="#DABFFF"/>
<path d="M151.816 149.763L130.783 128.732L127.442 134.521L148.474 155.552L151.816 149.763Z" fill="#DABFFF"/>
<path d="M84.5986 208.729L120.624 244.756H126.265L86.6622 205.154L84.5986 208.729Z" fill="#DABFFF"/>
<path d="M223.578 216.024L252.309 244.756H261.862L233.132 216.024H223.578Z" fill="#DABFFF"/>
<path d="M157.326 140.22L136.294 119.187L132.797 125.244L153.83 146.275L157.326 140.22Z" fill="#DABFFF"/>
<path d="M89.9912 199.385L135.362 244.756H141.423L92.2107 195.542L89.9912 199.385Z" fill="#DABFFF"/>
<path d="M162.837 130.675L141.804 109.642L138.153 115.968L159.184 136.999L162.837 130.675Z" fill="#DABFFF"/>
<path d="M140.794 168.852L119.763 147.82L116.73 153.072L137.762 174.104L140.794 168.852Z" fill="#DABFFF"/>
<path d="M129.775 187.942L108.742 166.909L106.021 171.625L127.052 192.656L129.775 187.942Z" fill="#DABFFF"/>
<path d="M146.306 159.308L125.273 138.276L122.086 143.796L143.119 164.828L146.306 159.308Z" fill="#DABFFF"/>
<path d="M79.2422 218.005L105.993 244.756H111.315L81.1901 214.631L79.2422 218.005Z" fill="#DABFFF"/>
<path d="M135.285 178.397L114.252 157.364L111.375 162.349L132.408 183.38L135.285 178.397Z" fill="#DABFFF"/>
<path d="M124.264 197.485L103.232 176.454L100.664 180.901L121.697 201.932L124.264 197.485Z" fill="#DABFFF"/>
<path d="M206.708 140.628L285.2 219.121L269.838 192.513L191.345 114.019L206.708 140.628Z" fill="#DABFFF"/>
<path d="M159.575 78.8639L180.607 99.8953L181.899 97.659L186.72 106.008L265.213 184.502L249.272 156.892L163.847 71.4652L159.575 78.8639Z" fill="#DABFFF"/>
<path d="M226.694 175.246L296.204 244.756H300L290.403 228.133L211.909 149.64L226.694 175.246Z" fill="#DABFFF"/>
<path d="M164.93 69.5879L245.225 149.884L228.707 121.273L169.356 61.9207L164.93 69.5879Z" fill="#DABFFF"/>
<path d="M168.347 121.131L147.314 100.099L143.508 106.692L164.54 127.723L168.347 121.131Z" fill="#DABFFF"/>
<path d="M181.899 40.1971L181.074 41.6247L184.976 45.5261L181.899 40.1971Z" fill="#DABFFF"/>
<path d="M175.643 51.0358L205.252 80.6467L187.866 50.5333L180.301 42.9663L175.643 51.0358Z" fill="#DABFFF"/>
<path d="M170.286 60.3118L225.239 115.264L208.142 85.6521L174.867 52.3773L170.286 60.3118Z" fill="#DABFFF"/>
<path d="M238.21 216.024L266.94 244.756H276.916L248.186 216.024H238.21Z" fill="#DABFFF"/>
<path d="M246.682 209.865L281.571 244.756H291.972L232.475 185.259L246.682 209.865Z" fill="#DABFFF"/>
<path d="M66.5947 239.91L71.4394 244.756H76.7296L68.531 236.557L66.5947 239.91Z" fill="#DABFFF"/>
<path d="M72.0272 230.5L70.1699 233.719L81.2054 244.756H86.2832L72.0272 230.5Z" fill="#DABFFF"/>
<path d="M181.075 41.6248L180.301 42.9661L187.866 50.5332L184.976 45.5258L181.075 41.6248Z" fill="#DABFFF"/>
</svg>
