<svg width="443" height="607" viewBox="0 0 443 607" fill="none" xmlns="http://www.w3.org/2000/svg">
<path d="M256.752 64.5765C256.748 51.0071 260.247 40.1578 267.253 32.0711C275.327 22.7498 288.136 17.1298 305.313 15.3712C319.039 13.9698 335.577 15.0085 354.468 18.4671C386.627 24.3511 414.831 35.3618 415.113 35.4725C414.728 35.6218 386.547 24.6218 354.415 18.7365C335.552 15.2845 319.039 14.2418 305.337 15.6472C288.236 17.3965 275.491 22.9845 267.464 32.2525C260.499 40.2925 257.02 51.0872 257.02 64.5898C257.02 91.1098 270.439 128.064 297.208 175.076C413.413 379.16 412.732 379.984 377.133 423.214C370.84 430.862 363.705 439.529 355.837 450.911C344.857 466.773 341.385 483.994 345.507 502.091C352.231 531.615 378.207 558.566 398.816 575.974C421.151 594.837 442.164 606.875 442.368 606.999C442.021 607.116 420.987 595.067 398.635 576.184C385.504 565.091 374.493 553.843 365.908 542.757C355.169 528.887 348.216 515.225 345.24 502.159C344.112 497.213 343.547 492.336 343.547 487.534C343.547 474.674 347.577 462.347 355.607 450.748C363.479 439.363 370.623 430.691 376.919 423.042C412.401 379.952 413.079 379.134 296.967 175.208C270.183 128.168 256.752 91.1631 256.752 64.5765Z" fill="#7FDEFF"/>
<path d="M247.963 63.623C247.963 50.1003 251.442 39.3044 258.407 31.275C266.316 22.1644 278.786 16.663 295.476 14.923C308.811 13.5323 324.856 14.5283 343.167 17.8803C374.331 23.587 401.627 34.2977 401.895 34.4057C401.524 34.5577 374.252 23.8497 343.11 18.1497C324.828 14.803 308.811 13.8097 295.499 15.195C278.886 16.931 266.48 22.399 258.616 31.4523C251.694 39.4323 248.236 50.1763 248.234 63.6337C248.234 90.3443 261.851 127.74 289.007 175.436C348.29 279.542 374.523 327.892 383.515 357.788C387.935 372.486 388.319 383.34 384.772 392.988C381.386 402.18 374.544 410.175 365.871 420.306C358.98 428.347 351.178 437.467 342.622 449.84C331.643 465.703 328.171 482.926 332.291 501.023C339.015 530.547 364.991 557.496 385.598 574.903C407.931 593.772 428.943 605.807 429.152 605.926C428.811 606.046 407.778 593.996 385.423 575.116C372.292 564.02 361.278 552.772 352.694 541.686C341.956 527.819 334.999 514.162 332.022 501.087C330.899 496.15 330.339 491.266 330.331 486.463C330.331 473.604 334.362 461.286 342.391 449.678C350.96 437.298 358.767 428.172 365.66 420.126C382.988 399.886 392.534 388.74 383.252 357.867C374.263 327.992 348.04 279.666 288.771 175.571C261.598 127.848 247.97 90.3977 247.963 63.623Z" fill="#7FDEFF"/>
<path d="M239.16 62.6422C239.16 49.1662 242.615 38.4262 249.541 30.4595C257.279 21.5635 269.417 16.1808 285.615 14.4621C298.557 13.0888 314.115 14.0395 331.851 17.2901C362.031 22.8181 388.42 33.2355 388.687 33.3395C388.317 33.4888 361.949 23.0848 331.797 17.5568C314.083 14.3195 298.557 13.3662 285.64 14.7408C269.517 16.4502 257.441 21.7982 249.751 30.6448C242.871 38.5568 239.435 49.2435 239.431 62.6488C239.431 89.5488 253.255 127.393 280.816 175.801C336.269 273.188 364.211 325.026 373.037 356.261C381.761 387.12 372.101 397.945 354.563 417.59C347.089 425.971 338.608 435.465 329.411 448.771C318.429 464.634 314.953 481.86 319.08 499.953C325.804 529.478 351.781 556.426 372.383 573.834C394.717 592.7 415.732 604.741 415.944 604.86C415.596 604.977 394.56 592.93 372.208 574.046C359.079 562.952 348.068 551.706 339.483 540.617C328.745 526.751 321.791 513.091 318.811 500.021C317.683 495.077 317.123 490.198 317.123 485.396C317.123 472.54 321.153 460.216 329.18 448.614C338.395 435.294 346.875 425.79 354.36 417.408C371.831 397.832 381.452 387.048 372.775 356.336C363.952 325.136 336.015 273.3 280.576 175.937C252.995 127.497 239.16 89.5968 239.16 62.6422Z" fill="#7FDEFF"/>
<path d="M230.342 61.6248C230.342 48.1995 233.775 37.5235 240.648 29.6381C248.219 20.9541 260.019 15.6888 275.735 13.9901C288.29 12.6435 303.354 13.5542 320.511 16.6928C349.723 22.0462 375.216 32.1648 375.471 32.2715C375.115 32.4248 349.643 22.3141 320.46 16.9661C303.324 13.8261 288.29 12.9195 275.76 14.2675C260.122 15.9568 248.379 21.1862 240.862 29.8142C234.028 37.6582 230.612 48.2848 230.612 61.6355C230.611 88.7195 244.646 127.03 272.623 176.159C324.435 267.165 354.126 322.589 362.658 354.823C366.479 369.314 366.432 379.999 362.491 389.467C358.79 398.363 351.92 405.733 343.222 415.061C335.548 423.286 325.998 433.526 316.192 447.701C305.218 463.57 301.742 480.791 305.864 498.889C312.595 528.41 338.568 555.358 359.175 572.763C381.508 591.638 402.519 603.67 402.726 603.79C402.384 603.911 381.348 591.866 358.998 572.979C345.866 561.886 334.852 550.637 326.27 539.546C315.531 525.681 308.575 512.023 305.595 498.95C304.474 494.011 303.911 489.135 303.911 484.333C303.911 471.471 307.942 459.149 315.964 447.545C325.787 433.353 335.336 423.106 343.016 414.871C360.135 396.521 370.463 385.442 362.387 354.895C353.87 322.685 324.186 267.279 272.378 176.299C244.387 127.137 230.342 88.7728 230.342 61.6248Z" fill="#7FDEFF"/>
<path d="M221.504 60.5798C221.504 47.2171 224.912 36.6118 231.736 28.7891C239.128 20.3198 250.601 15.1851 265.827 13.5171C277.991 12.1838 292.573 13.0518 309.163 16.0931C337.405 21.2758 362.012 31.1025 362.259 31.2011C361.907 31.3585 337.327 21.5384 309.112 16.3638C292.548 13.3278 277.995 12.4638 265.853 13.7971C250.697 15.4558 239.291 20.5611 231.943 28.9744C225.159 36.7411 221.777 47.3024 221.777 60.5904C221.771 87.8598 236.023 126.637 264.427 176.524C293.612 227.781 312.648 262.688 326.149 289.697C340.268 317.954 348.601 338.218 352.347 353.472C359.861 384.006 349.316 394.808 331.851 412.694C323.607 421.134 313.349 431.644 302.979 446.633C292.003 462.497 288.525 479.72 292.655 497.822C299.379 527.34 325.352 554.286 345.96 571.7C368.295 590.569 389.305 602.601 389.516 602.721C389.168 602.84 368.136 590.8 345.783 571.909C332.655 560.817 321.639 549.574 313.057 538.48C302.315 524.612 295.363 510.954 292.384 497.884C291.257 492.94 290.695 488.065 290.695 483.262C290.695 470.401 294.725 458.078 302.755 446.477C313.136 431.464 323.403 420.949 331.652 412.502C349.053 394.682 359.552 383.928 352.077 353.54C344.884 324.284 321.887 277.998 264.184 176.662C235.763 126.753 221.505 87.9131 221.504 60.5798Z" fill="#7FDEFF"/>
<path d="M212.646 59.5008C212.646 46.2061 216.023 35.6688 222.796 27.9301C230.016 19.6848 241.15 14.6688 255.891 13.0288C267.678 11.7168 281.774 12.5474 297.806 15.4874C325.079 20.5021 348.807 30.0368 349.046 30.1328C348.707 30.2968 325.003 20.7634 297.75 15.7634C281.747 12.8248 267.678 12.0034 255.923 13.3061C241.251 14.9381 230.178 19.9221 223.004 28.1154C216.274 35.8034 212.916 46.2914 212.916 59.5141C212.916 86.9621 227.382 126.23 256.234 176.893C284.34 226.267 303.625 261.846 316.909 288.859C330.625 316.761 338.643 336.894 342.12 352.206C345.371 366.493 344.851 377.013 340.44 386.322C336.342 394.963 329.336 401.807 320.46 410.481C311.632 419.091 300.664 429.813 289.763 445.563C278.791 461.435 275.316 478.65 279.438 496.753C286.166 526.271 312.143 553.223 332.744 570.627C355.083 589.497 376.089 601.531 376.299 601.654C375.956 601.771 354.92 589.729 332.57 570.841C319.436 559.749 308.43 548.506 299.842 537.415C289.106 523.541 282.147 509.886 279.168 496.813C278.047 491.874 277.482 486.997 277.482 482.195C277.482 469.333 281.514 457.01 289.542 445.41C300.452 429.638 311.439 418.902 320.264 410.286C338.009 392.949 348.723 382.483 341.856 352.265C335.113 322.609 311.838 275.113 255.987 177.027C227.128 126.337 212.646 87.0194 212.646 59.5008Z" fill="#7FDEFF"/>
<path d="M203.764 58.3896C203.764 45.1696 207.118 34.7109 213.828 27.0549C220.869 19.0283 231.673 14.1443 245.938 12.5323C257.334 11.2509 270.954 12.035 286.422 14.887C312.742 19.723 335.609 28.9723 335.83 29.0616C335.501 29.2256 312.666 19.9896 286.366 15.151C270.93 12.3123 257.334 11.5229 245.968 12.8109C231.777 14.4123 221.029 19.2669 214.038 27.2389C193.346 50.8256 204.788 101.3 248.034 177.258C302.194 272.376 325.728 321.092 331.961 351.022C338.261 381.216 326.641 392.031 309.041 408.402C299.642 417.147 287.942 428.038 276.554 444.496C265.582 460.367 262.101 477.586 266.23 495.684C272.954 525.207 298.932 552.155 319.533 569.566C341.87 588.431 362.88 600.467 363.089 600.584C362.737 600.71 341.712 588.66 319.353 569.77C306.229 558.683 295.214 547.435 286.629 536.342C275.886 522.475 268.937 508.815 265.96 495.744C264.829 490.803 264.27 485.928 264.27 481.126C264.27 468.264 268.298 455.939 276.324 444.34C287.726 427.855 299.444 416.952 308.854 408.203C326.385 391.895 337.958 381.12 331.697 351.07C325.466 321.182 301.938 272.49 247.796 177.394C218.477 125.9 203.77 86.0883 203.764 58.3896Z" fill="#7FDEFF"/>
<path d="M194.865 57.2466C194.865 44.1026 198.181 33.7306 204.835 26.1653C211.7 18.3626 222.169 13.6066 235.952 12.0333C246.965 10.7679 260.111 11.5239 275.021 14.2679C300.403 18.9493 322.4 27.9066 322.62 27.9973C322.296 28.1639 300.315 19.2119 274.968 14.5413C260.083 11.7986 246.965 11.0479 235.983 12.3013C222.265 13.8733 211.857 18.5946 205.047 26.3519C198.437 33.8653 195.128 44.1893 195.128 57.2613C195.128 85.0706 210.064 125.331 239.837 177.616C292.421 269.967 316.185 319.885 321.876 349.904C324.541 363.989 323.524 374.355 318.576 383.512C314.033 391.913 306.424 398.649 297.617 406.448C287.099 415.756 275.181 426.309 263.337 443.425C252.365 459.296 248.891 476.519 253.013 494.615C259.74 524.136 285.715 551.084 306.317 568.488C328.653 587.367 349.669 599.396 349.875 599.516C349.527 599.64 328.495 587.591 306.143 568.704C293.011 557.616 282.004 546.367 273.413 535.279C262.679 521.408 255.724 507.747 252.743 494.675C251.615 489.735 251.056 484.86 251.056 480.059C251.056 467.196 255.087 454.875 263.116 443.273C274.973 426.125 287.429 415.101 297.431 406.241C315.396 390.337 327.26 379.837 321.599 349.957C315.923 319.964 292.164 270.077 239.601 177.756C209.811 125.444 194.865 85.1226 194.865 57.2466Z" fill="#7FDEFF"/>
<path d="M185.941 56.0671C185.941 43.0111 189.224 32.7325 195.813 25.2618C202.499 17.6818 212.631 13.0538 225.943 11.5124C236.573 10.2818 249.251 11.0004 263.605 13.6511C288.051 18.1684 309.193 26.8391 309.409 26.9311C309.092 27.1004 287.968 18.4311 263.552 13.9245C249.22 11.2778 236.573 10.5578 225.972 11.7871C212.732 13.3231 202.655 17.9191 196.023 25.4431C186.557 36.1804 183.953 53.0405 188.276 75.5671C193.324 101.854 207.913 136.314 231.643 177.983C283.433 268.94 306.671 318.45 311.847 348.867C314.191 362.664 312.879 373.26 307.716 382.211C302.928 390.506 295.172 397.039 286.183 404.603C275.033 413.988 262.393 424.624 250.129 442.356C239.152 458.227 235.679 475.451 239.799 493.548C246.523 523.067 272.503 550.015 293.108 567.424C315.436 586.295 336.455 598.332 336.66 598.444C336.312 598.571 315.283 586.522 292.932 567.639C279.8 556.543 268.785 545.296 260.201 534.208C249.461 520.342 242.507 506.676 239.529 493.607C238.408 488.664 237.841 483.79 237.841 478.986C237.841 466.124 241.873 453.808 249.899 442.2C262.187 424.438 274.837 413.786 286.001 404.392C303.781 389.426 316.625 378.612 311.572 348.91C306.407 318.532 283.183 269.051 231.403 178.119C201.129 124.955 185.945 84.1178 185.941 56.0671Z" fill="#7FDEFF"/>
<path d="M176.992 54.8494C176.992 41.8974 180.243 31.7134 186.76 24.3427C193.262 16.9894 203.066 12.4974 215.898 10.9881C226.156 9.78274 238.356 10.4694 252.175 13.0294C275.683 17.3854 295.992 25.7774 296.192 25.8627C295.886 26.0307 275.607 17.6547 252.118 13.3041C238.331 10.7467 226.156 10.0627 215.93 11.2667C203.162 12.7627 193.42 17.2214 186.967 24.5214C180.532 31.8001 177.306 41.9787 177.306 54.8947C177.306 60.9254 178.006 67.5454 179.412 74.7601C184.588 101.271 199.404 136.121 223.446 178.349C249.307 223.761 267.951 259.037 280.45 286.189C292.578 312.543 299.588 332.721 301.867 347.892C306.336 377.58 293.082 388.181 274.736 402.859C262.947 412.293 249.576 422.981 236.912 441.295C225.934 457.161 222.462 474.384 226.587 492.481C233.311 522.005 259.286 548.953 279.894 566.357C302.228 585.227 323.242 597.265 323.45 597.383C323.103 597.5 302.071 585.455 279.719 566.569C266.586 555.479 255.578 544.232 246.984 533.14C236.247 519.273 229.298 505.615 226.32 492.541C225.19 487.597 224.631 482.721 224.631 477.923C224.631 465.056 228.662 452.743 236.687 441.137C249.374 422.799 262.758 412.091 274.568 402.641C292.836 388.021 306.038 377.465 301.595 347.931C297.038 317.649 273.598 266.975 223.208 178.481C192.435 124.437 176.992 83.0707 176.992 54.8494Z" fill="#7FDEFF"/>
<path d="M168.062 53.6382C168.062 40.7489 171.272 30.6236 177.674 23.4036C183.993 16.2809 193.46 11.9222 205.825 10.4502C215.705 9.27556 227.445 9.93023 240.722 12.4036C263.313 16.6049 282.786 24.7089 282.98 24.7942C282.677 24.9702 263.228 16.8676 240.662 12.6729C227.416 10.2102 215.705 9.55291 205.854 10.7276C193.562 12.1862 184.15 16.5156 177.882 23.5876C168.482 34.1889 166.008 51.1222 170.532 73.9195C175.84 100.662 190.885 135.917 215.25 178.712C265.013 266.109 287.948 316.432 291.941 346.98C295.8 376.5 282.157 386.86 263.288 401.206C250.838 410.664 236.728 421.382 223.7 440.224C212.726 456.093 209.252 473.312 213.369 491.412C220.094 520.933 246.076 547.884 266.674 565.289C289.016 584.157 310.022 596.196 310.233 596.314C309.888 596.434 288.856 584.388 266.502 565.505C253.372 554.41 242.358 543.164 233.774 532.076C223.034 518.205 216.08 504.546 213.101 491.469C211.98 486.534 211.418 481.65 211.418 476.854C211.412 463.994 215.442 451.672 223.47 440.066C236.525 421.189 250.652 410.453 263.12 400.986C281.922 386.698 295.508 376.374 291.669 347.022C287.682 316.505 264.753 266.209 215.012 178.846C190.629 136.032 175.577 100.741 170.264 73.9702C168.799 66.5769 168.062 59.7915 168.062 53.6382Z" fill="#7FDEFF"/>
<path d="M159.065 52.3374C159.065 39.5721 162.236 29.5614 168.557 22.4507C174.683 15.5561 183.821 11.3401 195.725 9.90942C205.228 8.76408 216.505 9.39072 229.248 11.7734C250.929 15.8187 269.58 23.6467 269.769 23.7241C269.475 23.8987 250.849 16.0827 229.192 12.0387C209.231 8.31606 182.544 7.13074 168.76 22.6321C159.403 33.1627 157.001 50.1294 161.631 73.0521C167.08 100.027 182.363 135.699 207.053 179.075C232.269 223.353 250.397 258.067 262.468 285.201C273.977 311.081 280.392 331.013 282.064 346.133C283.559 359.643 281.42 369.997 275.337 378.709C269.759 386.689 261.456 392.688 251.832 399.633C238.72 409.096 223.865 419.817 210.489 439.157C199.508 455.023 196.036 472.245 200.161 490.343C206.885 519.867 232.859 546.816 253.468 564.225C275.803 583.095 296.816 595.127 297.023 595.247C296.675 595.364 275.639 583.316 253.288 564.436C240.156 553.34 229.145 542.093 220.56 531.005C209.821 517.135 202.867 503.477 199.892 490.403C198.764 485.468 198.203 480.587 198.203 475.792C198.203 462.924 202.236 450.605 210.261 438.997C223.664 419.625 238.541 408.883 251.671 399.411C271.025 385.433 285.016 375.339 281.789 346.161C280.121 331.072 273.715 311.167 262.216 285.317C250.145 258.192 232.027 223.487 206.819 179.209C182.103 135.809 166.809 100.112 161.357 73.1067C159.829 65.5294 159.065 58.6014 159.065 52.3374Z" fill="#7FDEFF"/>
<path d="M150.045 51.0001C150.045 38.3601 153.172 28.4734 159.402 21.4841C165.345 14.8188 174.156 10.7388 185.585 9.34943C194.721 8.24143 205.545 8.84679 217.753 11.1348C238.533 15.0335 256.373 22.5855 256.554 22.6575C256.27 22.8361 238.454 15.2961 217.702 11.4055C198.57 7.81746 172.964 6.68678 159.608 21.6681C150.294 32.1161 147.97 49.0975 152.706 72.1575C158.296 99.3695 173.824 135.464 198.862 179.439C223.793 223.228 241.677 257.691 253.528 284.781C264.752 310.444 270.87 330.257 272.232 345.34C273.438 358.756 271.017 369.024 264.606 377.655C258.756 385.537 250.236 391.375 240.374 398.139C226.59 407.583 210.969 418.285 197.269 438.089C186.297 453.953 182.825 471.175 186.946 489.272C193.672 518.796 219.649 545.745 240.25 563.159C262.585 582.021 283.596 594.056 283.812 594.177C283.464 594.297 262.428 582.248 240.076 563.365C226.945 552.272 215.93 541.024 207.349 529.937C196.606 516.071 189.654 502.409 186.674 489.339C185.553 484.397 184.988 479.517 184.988 474.721C184.986 461.855 189.018 449.533 197.048 437.927C210.773 418.089 226.414 407.364 240.218 397.908C259.408 384.751 274.573 374.364 271.952 345.368C270.596 330.315 264.485 310.529 253.272 284.893C241.428 257.808 223.552 223.36 198.62 179.576C173.565 135.573 158.025 99.4548 152.436 72.2134C150.838 64.4521 150.045 57.3761 150.045 51.0001Z" fill="#7FDEFF"/>
<path d="M140.994 49.6184C140.994 37.117 144.069 27.3623 150.215 20.501C155.967 14.0703 164.445 10.1303 175.419 8.78234C184.186 7.71701 194.557 8.28769 206.243 10.4917C226.133 14.2424 243.174 21.5143 243.345 21.5917C243.065 21.773 226.047 14.505 206.19 10.7664C187.879 7.30768 163.346 6.2317 150.421 20.6824C144.325 27.4944 141.267 37.185 141.267 49.6103C141.267 56.0823 142.097 63.297 143.758 71.2303C149.493 98.685 165.278 135.213 190.661 179.802C215.35 223.152 232.995 257.368 244.615 284.406C255.554 309.864 261.386 329.556 262.434 344.604C264.447 373.576 248.766 383.782 228.911 396.704C214.45 406.116 198.061 416.785 184.062 437.018C173.081 452.89 169.607 470.109 173.731 488.204C180.455 517.73 206.433 544.677 227.038 562.088C249.375 580.956 270.386 592.99 270.595 593.108C270.247 593.226 249.219 581.186 226.859 562.297C213.731 551.204 202.721 539.956 194.134 528.866C183.397 515 176.442 501.342 173.465 488.268C172.337 483.329 171.774 478.446 171.774 473.653C171.774 460.792 175.805 448.469 183.831 436.861C197.858 416.584 214.277 405.897 228.762 396.472C248.542 383.601 264.165 373.433 262.157 344.617C260.034 314.126 237.913 263.336 190.423 179.938C165.021 135.326 149.23 98.769 143.489 71.2904C141.823 63.3397 140.994 56.101 140.994 49.6184Z" fill="#7FDEFF"/>
<path d="M131.915 48.1916C131.915 35.8396 134.939 26.2356 140.983 19.5009C146.54 13.3063 154.691 9.51029 165.211 8.21162C173.614 7.17696 183.539 7.72761 194.708 9.84228C213.716 13.4489 229.964 20.4503 230.128 20.5209C229.858 20.7063 213.631 13.7156 194.646 10.1143C177.156 6.79563 153.683 5.7636 141.188 19.6849C135.192 26.3663 132.184 35.9116 132.184 48.1916C132.184 54.7769 133.052 62.1409 134.783 70.2836C140.676 97.9729 156.722 134.945 182.468 180.169C229.53 262.821 251.179 313.318 252.672 343.906C254.067 372.7 237.912 382.69 217.448 395.333C202.298 404.698 185.124 415.31 170.844 435.953C159.872 451.82 156.394 469.04 160.52 487.142C167.246 516.66 193.219 543.608 213.827 561.02C236.159 579.889 257.17 591.921 257.383 592.038C257.036 592.161 236.002 580.112 213.65 561.229C200.519 550.137 189.504 538.888 180.92 527.798C170.184 513.932 163.226 500.273 160.248 487.2C159.126 482.258 158.562 477.378 158.562 472.582C158.562 459.721 162.592 447.398 170.622 435.794C184.93 415.106 202.13 404.48 217.303 395.1C237.684 382.501 253.783 372.556 252.395 343.917C250.908 313.378 229.267 262.916 182.228 180.302C156.466 135.06 140.414 98.061 134.511 70.3383C132.776 62.1876 131.915 54.7983 131.915 48.1916Z" fill="#7FDEFF"/>
<path d="M122.797 46.7243C122.797 34.5363 125.774 25.0843 131.713 18.4869C137.081 12.5283 144.906 8.87628 154.972 7.62695C163.009 6.62695 172.493 7.15761 183.148 9.19494C201.292 12.6509 216.76 19.3856 216.913 19.4589C216.652 19.6416 201.198 12.9203 183.094 9.46293C166.405 6.27493 143.976 5.28694 131.918 18.6723C126.028 25.2109 123.076 34.6069 123.076 46.7243C123.076 53.4229 123.976 60.9549 125.782 69.2976C131.844 97.2376 148.156 134.659 174.276 180.531C220.922 262.455 242.1 312.648 242.94 343.254C243.305 356.395 240.01 366.41 232.582 374.783C225.853 382.364 216.208 388.022 205.984 394.022C190.136 403.322 172.176 413.864 157.636 434.884C146.658 450.755 143.185 467.978 147.308 486.067C154.032 515.591 180.009 542.54 200.609 559.947C222.945 578.819 243.961 590.851 244.166 590.972C243.821 591.094 222.789 579.05 200.44 560.16C187.302 549.064 176.296 537.816 167.71 526.736C156.97 512.862 150.016 499.206 147.036 486.134C145.91 481.194 145.348 476.31 145.348 471.514C145.348 458.652 149.378 446.33 157.408 434.731C171.98 413.663 189.974 403.098 205.848 393.78C226.849 381.451 243.444 371.711 242.662 343.264C241.829 312.7 220.658 262.556 174.03 180.67C147.904 134.77 131.577 97.3229 125.518 69.3576C123.704 61.0002 122.797 53.4443 122.797 46.7243Z" fill="#7FDEFF"/>
<path d="M113.654 45.2123C113.654 33.195 116.576 23.907 122.402 17.4563C127.576 11.7403 135.07 8.22834 144.688 7.03234C152.372 6.06968 161.412 6.58033 171.568 8.531C188.849 11.8577 203.557 18.3203 203.706 18.391C203.446 18.5723 188.758 12.1203 171.508 8.807C155.612 5.74167 134.224 4.79499 122.608 17.6443C113.522 27.6923 111.56 44.731 116.761 68.2897C122.985 96.4697 139.576 134.354 166.081 180.894C194.481 230.78 213.273 269.028 223.518 297.826C232.886 324.17 235.408 343.024 231.46 357.174C226.501 374.93 211.682 383.194 194.518 392.759C177.968 401.984 159.205 412.44 144.42 433.816C133.442 449.684 129.969 466.902 134.089 485.004C140.821 514.52 166.794 541.475 187.398 558.879C209.729 577.75 230.748 589.783 230.96 589.904C230.612 590.03 209.573 577.98 187.225 559.09C174.094 548.003 163.082 536.748 154.494 525.663C143.758 511.795 136.797 498.135 133.821 485.064C132.698 480.123 132.138 475.246 132.138 470.446C132.138 457.582 136.168 445.259 144.196 433.66C159.016 412.227 177.801 401.758 194.385 392.514C211.492 382.976 226.262 374.744 231.197 357.096C239.244 328.282 219.701 275.622 165.84 181.03C139.325 134.467 122.722 96.5576 116.49 68.3443C114.598 59.7696 113.654 52.051 113.654 45.2123Z" fill="#7FDEFF"/>
<path d="M104.469 43.6576C104.469 31.8283 107.33 22.7069 113.046 16.4136C118.022 10.9322 125.193 7.5669 134.366 6.42423C141.691 5.5029 150.305 5.99356 159.959 7.87223C176.393 11.0589 190.351 17.2562 190.487 17.3202C190.238 17.5096 176.302 11.3202 159.902 8.14155C144.786 5.20022 124.422 4.28556 113.249 16.5962C104.245 26.5242 102.379 43.5642 107.707 67.2416C114.117 95.6696 130.991 134.027 157.881 181.259C185.826 230.338 204.275 268.111 214.287 296.752C219.014 310.292 221.871 321.732 223.019 331.727C224.087 341.058 223.635 348.927 221.641 355.779C216.371 373.902 200.931 382.074 183.058 391.536C165.79 400.683 146.223 411.042 131.205 432.746C120.233 448.616 116.759 465.839 120.877 483.935C127.606 513.458 153.583 540.41 174.183 557.816C196.523 576.68 217.531 588.714 217.741 588.84C217.393 588.959 196.363 576.91 174.011 558.022C160.878 546.934 149.863 535.687 141.285 524.599C130.538 510.731 123.59 497.067 120.61 483.994C119.481 479.055 118.922 474.18 118.922 469.378C118.922 456.518 122.953 444.194 130.979 432.591C146.031 410.826 165.634 400.448 182.93 391.291C200.746 381.86 216.139 373.712 221.379 355.707C225.475 341.63 223.135 322.926 214.025 296.84C204.022 268.222 185.578 230.456 157.646 181.395C130.735 134.143 113.846 95.7576 107.439 67.3016C105.462 58.5029 104.469 50.6123 104.469 43.6576Z" fill="#7FDEFF"/>
<path d="M95.2461 42.0539C95.2461 30.4272 98.0501 21.4952 103.635 15.3592C108.415 10.1139 115.265 6.89924 123.998 5.80858C130.971 4.93391 139.159 5.40322 148.325 7.19656C163.927 10.2566 177.145 16.1899 177.275 16.2512C177.034 16.4432 163.838 10.5192 148.27 7.46991C133.921 4.65391 114.57 3.7739 103.838 15.5432C98.3021 21.6232 95.5234 30.4992 95.5234 42.0539C95.5234 49.0979 96.5581 57.1459 98.6248 66.1632C105.211 94.8406 122.39 133.686 149.686 181.621C177.191 229.925 195.313 267.247 205.082 295.714C209.693 309.133 212.442 320.501 213.495 330.454C214.474 339.746 213.947 347.586 211.877 354.425C206.287 372.913 190.207 380.999 171.59 390.363C153.607 399.41 133.226 409.659 117.993 431.683C107.017 447.546 103.542 464.769 107.669 482.866C114.393 512.387 140.366 539.335 160.969 556.739C183.298 575.615 204.321 587.647 204.527 587.769C204.178 587.891 183.15 575.842 160.794 556.957C147.662 545.863 136.655 534.617 128.065 523.529C117.327 509.662 110.375 495.997 107.394 482.926C106.27 477.985 105.709 473.109 105.709 468.306C105.709 455.449 109.737 443.127 117.765 431.521C133.041 409.446 153.451 399.174 171.463 390.111C190.03 380.782 206.057 372.718 211.614 354.342C215.803 340.475 213.585 321.326 204.821 295.803C195.055 267.354 176.941 230.05 149.446 181.759C122.141 133.801 104.951 94.9272 98.3594 66.2272C96.2848 57.1912 95.2461 49.1259 95.2461 42.0539Z" fill="#7FDEFF"/>
<path d="M85.9844 40.4075C85.9844 28.9942 88.7204 20.2516 94.1817 14.2889C98.7657 9.28356 105.298 6.21556 113.594 5.17423C120.215 4.3449 127.978 4.79957 136.67 6.51957C151.444 9.4529 163.942 15.1209 164.064 15.1822C163.827 15.3795 151.355 9.71421 136.606 6.79288C123.022 4.09688 104.664 3.24488 94.387 14.4769C88.9737 20.3889 86.2657 29.0702 86.2657 40.4009C86.259 47.5649 87.347 55.7902 89.5137 65.0569C96.295 93.9809 113.78 133.321 141.488 181.985C168.574 229.548 186.378 266.418 195.92 294.705C204.483 320.089 206.528 339.192 202.167 353.094C196.258 371.964 179.514 379.964 160.127 389.225C141.419 398.161 120.215 408.297 104.779 430.614C93.8044 446.477 90.331 463.702 94.451 481.796C101.182 511.317 127.148 538.265 147.758 555.678C170.088 574.542 191.106 586.583 191.312 586.703C190.968 586.821 169.935 574.773 147.584 555.889C134.45 544.794 123.435 533.55 114.854 522.46C104.111 508.594 97.1577 494.93 94.1817 481.864C93.0537 476.92 92.4937 472.041 92.4937 467.238C92.4937 454.382 96.519 442.054 104.551 430.457C120.027 408.077 141.272 397.926 160.01 388.976C179.339 379.744 196.03 371.762 201.904 353.017C206.251 339.164 204.206 320.117 195.659 294.786C186.118 266.525 168.324 229.666 141.254 182.12C113.527 133.437 96.031 94.0635 89.2457 65.1142C87.0737 55.8395 85.9844 47.5942 85.9844 40.4075Z" fill="#7FDEFF"/>
<path d="M76.6846 38.7076C76.6846 27.5289 79.3539 18.9942 84.6739 13.2009C89.0606 8.43688 95.2726 5.52887 103.138 4.54353C109.421 3.75553 116.769 4.18888 124.978 5.83821C138.949 8.64488 150.735 14.0582 150.849 14.1142C150.614 14.3102 138.855 8.90622 124.921 6.11022C112.078 3.53022 94.7072 2.70089 84.8766 13.3916C79.6059 19.1276 76.9606 27.6035 76.9606 38.6995C76.9606 45.9822 78.0992 54.3929 80.3766 63.9062C87.3512 93.0875 105.157 132.936 133.295 182.35C159.97 229.196 177.463 265.629 186.785 293.724C195.139 318.914 197.015 337.916 192.511 351.801C186.274 371.049 168.847 378.961 148.667 388.124C129.226 396.949 107.197 406.946 91.5686 429.544C80.5912 445.41 77.1152 462.632 81.2379 480.732C87.9619 510.253 113.942 537.201 134.549 554.607C156.875 573.477 177.894 585.513 178.102 585.63C177.754 585.754 156.725 573.706 134.366 554.822C121.237 543.73 110.226 532.481 101.641 521.389C90.9032 507.523 83.9486 493.866 80.9712 480.79C79.8432 475.853 79.2819 470.97 79.2819 466.174C79.2819 453.314 83.3126 440.988 91.3379 429.386C107.01 406.733 129.079 396.712 148.551 387.873C168.673 378.738 186.046 370.848 192.245 351.718C196.738 337.886 194.862 318.942 186.523 293.809C177.21 265.726 159.718 229.313 133.054 182.485C104.902 133.05 87.0899 93.1702 80.1019 63.9702C77.8232 54.4422 76.6846 46.0102 76.6846 38.7076Z" fill="#7FDEFF"/>
<path d="M66.0645 465.103C66.0645 452.243 70.1045 439.923 78.1218 428.318C93.9805 405.398 116.887 395.518 137.098 386.802C158.034 377.765 176.11 369.97 182.642 350.451C192.276 321.649 174.462 269.962 124.86 182.851C96.2685 132.639 78.1218 92.2432 70.9245 62.7899C65.0111 38.5646 66.4205 21.5192 75.1111 12.1099C79.2978 7.58455 85.1925 4.81653 92.6391 3.88853C98.5831 3.14853 105.52 3.5712 113.266 5.15253C126.44 7.8312 137.531 12.9965 137.638 13.0445C137.407 13.2445 126.347 8.09388 113.203 5.41921C101.095 2.95388 84.6951 2.15256 75.3151 12.2952C70.1898 17.8459 67.6125 26.1019 67.6125 36.9499C67.6125 44.3512 68.8031 52.9472 71.1951 62.7206C78.3885 92.1526 96.5205 132.529 125.104 182.713C151.375 228.869 168.579 264.867 177.676 292.777C185.836 317.775 187.543 336.675 182.904 350.535C176.331 370.173 158.198 377.993 137.204 387.054C117.027 395.755 94.1618 405.622 78.3525 428.475C67.3765 444.341 63.9045 461.563 68.0218 479.663C74.7525 509.185 100.728 536.134 121.335 553.541C143.668 572.413 164.679 584.445 164.886 584.565C164.542 584.683 143.51 572.634 121.159 553.757C108.026 542.661 97.0111 531.41 88.4271 520.323C77.6898 506.455 70.7325 492.798 67.7578 479.727C66.6325 474.783 66.0645 469.906 66.0645 465.103Z" fill="#7FDEFF"/>
<path d="M52.8525 464.035C52.8525 451.175 56.8832 438.854 64.9125 427.247C80.9352 404.08 104.682 394.346 125.639 385.755C147.411 376.828 166.213 369.12 173.077 349.208C177.829 335.43 176.285 316.695 168.338 291.939C159.451 264.247 142.555 228.679 116.665 183.216C87.6232 132.21 69.1312 91.2789 61.7112 61.5656C59.2019 51.5082 57.9459 42.6896 57.9459 35.1576C57.9459 24.4962 60.4632 16.4136 65.4912 11.0002C69.4765 6.71489 75.0552 4.09758 82.0779 3.23224C87.6925 2.53624 94.2312 2.95224 101.519 4.45624C113.915 7.01491 124.323 11.9242 124.427 11.9816C124.206 12.1802 113.818 7.27758 101.459 4.72691C90.0672 2.37491 74.6165 1.58558 65.6925 11.1922C57.1845 20.3496 55.9325 37.2816 61.9845 61.5029C69.3952 91.1896 87.8739 132.095 116.902 183.082C142.801 228.562 159.711 264.143 168.603 291.856C176.562 316.667 178.113 335.459 173.341 349.304C170.185 358.46 164.353 365.63 154.993 371.876C146.645 377.447 136.49 381.604 125.743 386.008C104.825 394.588 81.1205 404.307 65.1432 427.407C54.1619 443.274 50.6845 460.492 54.8125 478.592C61.5365 508.114 87.5099 535.066 108.117 552.471C130.45 571.342 151.463 583.374 151.674 583.498C151.326 583.615 130.297 571.568 107.941 552.683C94.8099 541.592 83.8005 530.344 75.2152 519.255C64.4752 505.391 57.5205 491.73 54.5419 478.659C53.4152 473.716 52.8525 468.838 52.8525 464.035Z" fill="#7FDEFF"/>
<path d="M39.6455 462.973C39.6362 450.109 43.6722 437.785 51.6962 426.179C67.8895 402.779 92.4829 393.195 114.183 384.739C136.816 375.919 156.362 368.309 163.563 348.001C168.44 334.25 167.044 315.613 159.287 291.047C150.612 263.547 133.988 228.399 108.466 183.577C78.9575 131.75 60.1189 90.2741 52.4602 60.3074C46.2282 35.8901 47.3562 18.9301 55.8069 9.87939C59.5869 5.83405 64.8642 3.36871 71.4775 2.56205C76.7575 1.91405 82.8989 2.31942 89.7389 3.75675C101.374 6.20208 111.116 10.8621 111.212 10.9141C110.996 11.1114 101.283 6.45806 89.6789 4.02339C78.9922 1.77672 64.4775 1.00341 56.0082 10.0727C47.6255 19.0447 46.5229 35.9221 52.7295 60.2434C60.3749 90.1874 79.2122 131.633 108.711 183.442C134.24 228.274 150.872 263.447 159.554 290.962C167.323 315.591 168.722 334.278 163.823 348.089C160.511 357.427 154.424 364.699 144.666 370.961C135.976 376.546 125.436 380.65 114.283 384.998C92.6189 393.441 68.0695 403.01 51.9269 426.339C40.9482 442.201 37.4762 459.429 41.5962 477.523C48.3269 507.05 74.3002 533.998 94.9095 551.402C117.24 570.273 138.247 582.31 138.464 582.427C138.118 582.545 117.079 570.503 94.7309 551.617C81.5989 540.521 70.5855 529.275 61.9989 518.185C51.2642 504.318 44.3095 490.658 41.3255 477.587C40.2042 472.649 39.6455 467.773 39.6455 462.973Z" fill="#7FDEFF"/>
<path d="M26.4277 461.902C26.4277 449.038 30.4584 436.718 38.4851 425.117C45.7917 414.551 55.4971 405.925 68.1677 398.746C79.3277 392.417 91.2211 388.009 102.726 383.749C125.261 375.401 146.552 367.521 154.09 346.818C159.085 333.087 157.837 314.563 150.265 290.175C141.788 262.882 125.437 228.131 100.272 183.941C70.2811 131.265 51.0704 89.2341 43.1704 59.0075C36.7731 34.5061 37.7451 17.5994 46.0624 8.75012C54.1624 0.126116 67.8637 0.887451 77.9304 3.04345C88.8157 5.38345 97.9104 9.79945 97.9984 9.84212C97.7917 10.0448 88.7211 5.6368 77.8624 3.31013C67.8744 1.17813 54.2757 0.410145 46.2571 8.93814C38.0184 17.7141 37.0691 34.5368 43.4397 58.9395C51.3304 89.1421 70.5371 131.15 100.514 183.806C125.686 228.011 142.045 262.779 150.526 290.091C158.121 314.542 159.37 333.13 154.349 346.911C150.885 356.425 144.536 363.786 134.374 370.082C125.326 375.675 114.394 379.73 102.829 384.006C80.4091 392.305 55.0051 401.718 38.7144 425.267C27.7331 441.139 24.2584 458.359 28.3877 476.461C35.1117 505.979 61.0851 532.926 81.6877 550.331C104.025 569.201 125.038 581.241 125.249 581.358C124.901 581.479 103.869 569.433 81.5157 550.549C68.3784 539.454 57.3717 528.209 48.7904 517.118C38.0491 503.251 31.0957 489.59 28.1171 476.519C26.9891 471.578 26.4277 466.702 26.4277 461.902Z" fill="#7FDEFF"/>
<path d="M13.2129 460.834C13.2116 447.97 17.2436 435.65 25.2702 424.044C32.6409 413.384 42.5582 404.738 55.5769 397.598C67.0529 391.306 79.3649 386.975 91.2729 382.784C114.67 374.55 136.777 366.768 144.658 345.658C149.77 331.966 148.662 313.54 141.262 289.335C132.978 262.242 116.89 227.886 92.0729 184.309C61.5876 130.755 41.9929 88.1525 33.8422 57.6725C30.9156 46.7151 29.4489 37.3005 29.4489 29.4645C29.4489 19.7098 31.7156 12.3992 36.2436 7.61249C43.8902 -0.474176 56.6929 0.276483 66.0849 2.32982C76.2409 4.55382 84.7022 8.73112 84.7876 8.77379C84.5782 8.98179 76.1449 4.81646 66.0182 2.59646C56.7009 0.559126 44.0062 -0.191524 36.4436 7.80581C28.3489 16.3645 27.5636 33.1165 34.1089 57.5978C42.2529 88.0538 61.8409 130.638 92.3209 184.167C117.138 227.768 133.24 262.146 141.524 289.254C148.944 313.523 150.053 332.004 144.913 345.755C141.296 355.45 134.681 362.912 124.102 369.216C114.694 374.831 103.364 378.822 91.3649 383.04C68.1969 391.199 41.9329 400.438 25.4942 424.199C14.5222 440.071 11.0489 457.29 15.1729 475.388C21.8969 504.911 47.8729 531.858 68.4796 549.268C90.8129 568.139 111.821 580.171 112.034 580.289C111.686 580.411 90.6529 568.364 68.3009 549.48C55.1702 538.384 44.1596 527.14 35.5742 516.054C24.8356 502.18 17.8809 488.519 14.8996 475.451C13.7782 470.51 13.2129 465.636 13.2129 460.834Z" fill="#7FDEFF"/>
<path d="M0 459.765C0 446.899 4.028 434.579 12.0573 422.98C19.4947 412.227 29.6093 403.553 42.9827 396.467C54.7787 390.215 67.5053 385.956 79.82 381.84C104.101 373.72 127.041 366.043 135.265 344.525C140.491 330.868 139.516 312.548 132.284 288.516C124.195 261.635 108.359 227.664 83.8827 184.668C52.8747 130.216 32.8893 87.0227 24.4693 56.2934C17.7133 31.636 18.3507 14.876 26.3533 6.46671C33.5507 -1.08929 45.4733 -0.345298 54.2053 1.60937C63.648 3.72404 71.5 7.66936 71.5773 7.70536C71.3747 7.91469 63.552 3.98672 54.14 1.87605C45.48 -0.0652815 33.6653 -0.801283 26.556 6.65738C18.624 14.9867 18.0147 31.664 24.7387 56.2174C33.1453 86.928 53.1253 130.101 84.1213 184.532C108.611 227.544 124.451 261.532 132.551 288.437C139.8 312.527 140.775 330.907 135.525 344.625C131.751 354.505 124.863 362.057 113.859 368.387C104.083 374.017 92.34 377.943 79.9067 382.096C55.9787 390.101 28.856 399.173 12.2853 423.136C1.30667 439.004 -2.16533 456.225 1.96 474.325C8.684 503.84 34.6587 530.792 55.26 548.199C77.5973 567.071 98.612 579.103 98.8227 579.224C98.4693 579.349 77.4413 567.299 55.0853 548.413C41.9533 537.323 30.9467 526.073 22.36 514.981C11.62 501.112 4.66667 487.455 1.68933 474.384C0.562667 469.441 0 464.564 0 459.765Z" fill="#7FDEFF"/>
</svg>
